<?xml version="1.0" encoding="UTF-8" standalone="no"?>
<svg
   xmlns:dc="http://purl.org/dc/elements/1.1/"
   xmlns:cc="http://creativecommons.org/ns#"
   xmlns:rdf="http://www.w3.org/1999/02/22-rdf-syntax-ns#"
   xmlns:svg="http://www.w3.org/2000/svg"
   xmlns="http://www.w3.org/2000/svg"
   xmlns:sodipodi="http://sodipodi.sourceforge.net/DTD/sodipodi-0.dtd"
   xmlns:inkscape="http://www.inkscape.org/namespaces/inkscape"
   width="180.0px"
   height="180.0px"
   viewBox="0 0 180.0 180.0"
   version="1.1"
   id="SVGRoot"
   sodipodi:docname="icon-brand-blue.svg"
   inkscape:version="1.0.1 (3bc2e813f5, 2020-09-07)">
  <defs
     id="defs2648" />
  <sodipodi:namedview
     id="base"
     pagecolor="#ffffff"
     bordercolor="#666666"
     borderopacity="1.0"
     inkscape:pageopacity="0.0"
     inkscape:pageshadow="2"
     inkscape:zoom="0.35"
     inkscape:cx="400"
     inkscape:cy="560"
     inkscape:document-units="px"
     inkscape:current-layer="layer1"
     inkscape:document-rotation="0"
     showgrid="true"
     inkscape:window-width="1346"
     inkscape:window-height="1198"
     inkscape:window-x="312"
     inkscape:window-y="155"
     inkscape:window-maximized="0">
    <inkscape:grid
       type="xygrid"
       id="grid3218" />
  </sodipodi:namedview>
  <metadata
     id="metadata2651">
    <rdf:RDF>
      <cc:Work
         rdf:about="">
        <dc:format>image/svg+xml</dc:format>
        <dc:type
           rdf:resource="http://purl.org/dc/dcmitype/StillImage" />
        <dc:title></dc:title>
      </cc:Work>
    </rdf:RDF>
  </metadata>
  <g
     inkscape:label="Layer 1"
     inkscape:groupmode="layer"
     id="layer1">
    <path
       class="st0"
       d="m 92.3,20.7 c -39.5,0 -71.6,32.1 -71.6,71.6 0,39.5 32.1,71.6 71.6,71.6 39.5,-0.1 71.5,-32.1 71.6,-71.6 0,-39.5 -32.1,-71.6 -71.6,-71.6 z m 0,3.2 c 37.8,0.1 68.4,30.7 68.4,68.4 0,37.8 -30.6,68.4 -68.4,68.4 -37.8,0 -68.4,-30.6 -68.4,-68.4 0,-37.8 30.6,-68.4 68.4,-68.4 z"
       id="path24"
       style="fill:#244583" />
    <path
       class="st0"
       d="m 92.3,156 c -3.7,0 -7.4,-0.3 -11.1,-0.9 -0.6,-0.1 -1.1,-0.4 -1.3,-1 -0.2,-0.6 -0.1,-1.1 0.3,-1.6 0.4,-0.4 0.9,-0.6 1.5,-0.5 6.9,1.2 14.1,1.2 21.1,0 0.9,-0.1 1.7,0.4 1.8,1.2 0.1,0.9 -0.4,1.7 -1.2,1.8 -3.7,0.7 -7.4,1 -11.1,1 z m -31.1,-8.3 c -0.2,0 -0.6,-0.1 -0.7,-0.2 -6.4,-3.8 -12.1,-8.6 -16.9,-14.3 -0.6,-0.7 -0.5,-1.6 0.2,-2.2 0.7,-0.6 1.6,-0.5 2.2,0.2 4.6,5.4 10,10 16.1,13.5 0.6,0.4 0.9,1.1 0.8,1.7 -0.3,0.8 -0.9,1.3 -1.7,1.3 z m 62.2,0 c -0.7,0 -1.3,-0.5 -1.5,-1.1 -0.2,-0.6 0.1,-1.4 0.8,-1.8 6.1,-3.6 11.6,-8.1 16.1,-13.5 0.4,-0.4 0.9,-0.7 1.5,-0.6 0.6,0.1 1,0.5 1.2,1 0.2,0.6 0.1,1.1 -0.3,1.6 -4.8,5.7 -10.5,10.5 -16.9,14.2 -0.4,0.1 -0.6,0.2 -0.9,0.2 z M 33.9,115.2 c -0.7,0 -1.2,-0.4 -1.5,-1.1 -2.6,-7 -3.9,-14.4 -3.8,-21.8 0,-0.4 0.2,-0.8 0.4,-1.1 0.3,-0.3 0.7,-0.4 1.1,-0.4 0.9,0 1.6,0.7 1.6,1.6 0,7.1 1.2,14.1 3.7,20.7 0.3,0.8 -0.1,1.7 -0.9,2 -0.3,0.1 -0.4,0.1 -0.6,0.1 z m 116.8,0 c -0.2,0 -0.4,0 -0.6,-0.1 -0.4,-0.1 -0.7,-0.4 -0.9,-0.8 -0.2,-0.4 -0.2,-0.8 -0.1,-1.2 2.4,-6.6 3.6,-13.7 3.6,-20.8 v -0.1 c 0,-0.9 0.7,-1.6 1.6,-1.6 0.9,0 1.6,0.7 1.6,1.6 v 0.1 c 0,7.4 -1.3,14.8 -3.8,21.8 -0.1,0.6 -0.7,1 -1.4,1.1 z M 33.9,72.7 c -0.5,0 -1,-0.3 -1.3,-0.7 -0.3,-0.4 -0.4,-0.9 -0.2,-1.4 2.6,-7 6.3,-13.5 11.1,-19.2 0.6,-0.7 1.6,-0.8 2.2,-0.2 0.6,0.6 0.8,1.6 0.2,2.2 -4.6,5.4 -8.1,11.6 -10.5,18.3 -0.3,0.5 -0.8,1 -1.5,1 z m 116.8,-0.2 c -0.7,0 -1.2,-0.4 -1.5,-1 -2.4,-6.6 -6,-12.8 -10.6,-18.2 -0.4,-0.4 -0.4,-1 -0.3,-1.6 0.2,-0.5 0.6,-0.9 1.2,-1 0.6,-0.1 1.1,0.1 1.5,0.6 4.8,5.7 8.6,12.1 11.1,19.1 0.3,0.8 -0.1,1.7 -0.9,2 -0.1,0 -0.3,0.1 -0.5,0.1 z M 61.2,40.1 c -0.7,0 -1.3,-0.5 -1.5,-1.2 -0.2,-0.7 0.1,-1.4 0.7,-1.8 6.4,-3.8 13.4,-6.3 20.8,-7.6 0.6,-0.1 1.1,0.1 1.5,0.6 0.4,0.4 0.4,1 0.3,1.6 -0.2,0.6 -0.6,0.9 -1.2,1 C 74.9,34 68.2,36.4 62,40 c -0.3,0 -0.6,0.1 -0.8,0.1 z M 123.3,40 c -0.3,0 -0.6,-0.1 -0.7,-0.2 -6.1,-3.5 -12.8,-5.9 -19.8,-7.2 -0.8,-0.2 -1.3,-1 -1.2,-1.8 0.1,-0.8 0.9,-1.4 1.8,-1.3 7.3,1.3 14.4,3.8 20.8,7.5 0.6,0.4 0.9,1.1 0.8,1.8 -0.4,0.7 -1,1.1 -1.7,1.2 z"
       id="path26"
       style="fill:#244583" />
    <path
       class="st0"
       d="m 92.3,147.7 c -30.6,0 -55.4,-24.8 -55.4,-55.4 0,-30.6 24.8,-55.4 55.4,-55.4 30.6,0 55.4,24.8 55.4,55.4 0,30.6 -24.8,55.4 -55.4,55.4 z M 92.3,40 C 63.4,40 40,63.4 40,92.3 c 0,28.9 23.4,52.3 52.3,52.3 28.9,0 52.3,-23.4 52.3,-52.3 0,-28.9 -23.4,-52.2 -52.3,-52.3 z"
       id="path28"
       style="fill:#244583" />
    <path
       class="st0"
       d="m 89.4,107.9 c -0.1,0 -0.3,0 -0.4,-0.1 C 83.3,106.3 78.8,102 77,96.4 75.2,90.9 76.3,84.8 80.1,80.2 v -0.1 c 0.4,-0.4 0.7,-0.9 1.1,-1.2 L 95.1,65 c 4.4,-4.4 10.8,-6.1 16.7,-4.5 6,1.6 10.6,6.2 12.3,12.3 1.6,6 -0.1,12.4 -4.5,16.7 l -13.9,13.9 c -0.4,0.4 -0.9,0.8 -1.3,1.2 -0.6,0.5 -1.5,0.4 -2.1,-0.1 -0.6,-0.6 -0.6,-1.4 -0.1,-2.1 2.9,-3.6 3.9,-8.3 2.7,-12.6 -0.1,-0.6 0,-1.1 0.4,-1.5 l 6.6,-6.6 c 2.4,-2.5 2.3,-6.4 -0.1,-8.8 -2.4,-2.4 -6.4,-2.5 -8.8,-0.1 L 88.9,86.7 c -0.3,0.3 -0.6,0.6 -0.8,1 -1.6,2.5 -1.3,5.8 0.8,7.9 2.1,2.1 5.4,2.4 7.9,0.8 0.6,-0.4 1.4,-0.3 1.9,0.2 0.5,0.5 0.6,1.3 0.2,1.9 -0.4,0.6 -0.8,1.1 -1.2,1.5 l -7.4,7.4 c -0.1,0.4 -0.6,0.5 -0.9,0.5 z m -7,-25.7 c -2.9,3.6 -3.9,8.4 -2.6,12.9 1.3,4.4 4.7,8 9.1,9.5 l 4,-4 c -3.4,-0.2 -6.4,-2.1 -7.9,-5.1 -1.5,-3 -1.3,-6.6 0.6,-9.4 0.4,-0.6 0.8,-1.1 1.2,-1.5 l 13.9,-13.9 c 3.7,-3.7 9.7,-3.7 13.4,0 3.7,3.7 3.7,9.7 0,13.4 l -5.9,5.9 c 0.3,1.2 0.4,2.4 0.4,3.6 0,1 -0.1,2 -0.3,3 l 9.2,-9.1 c 5.6,-5.6 5.6,-14.6 0,-20.1 -5.6,-5.6 -14.6,-5.6 -20.1,0 l -14,14 c -0.3,0.1 -0.7,0.4 -1,0.8 z"
       id="path30"
       style="fill:#244583" />
    <path
       class="st0"
       d="m 93.4,100.6 c -3.5,0 -6.7,-1.9 -8.3,-4.9 -1.6,-3.1 -1.5,-6.8 0.4,-9.7 0.1,-0.2 0.3,-0.3 0.4,-0.4 2.9,-1.9 6.6,-2.1 9.7,-0.4 3.1,1.6 4.9,4.8 4.9,8.3 0,1.8 -0.6,3.6 -1.6,5.2 -0.1,0.2 -0.3,0.3 -0.4,0.4 -1.4,1 -3.2,1.5 -5.1,1.5 z M 88,88 c -1.4,2.5 -1.1,5.6 1,7.6 2,2 5.2,2.4 7.6,1 0.6,-1 0.9,-2.1 0.9,-3.2 0,-2.3 -1.2,-4.4 -3.2,-5.5 -2,-1.1 -4.4,-1 -6.3,0.1 z"
       id="path32"
       style="fill:#244583" />
    <path
       class="st0"
       d="m 106.4,90.9 c -0.1,0 -0.2,0 -0.4,-0.1 -0.6,-0.1 -0.9,-0.6 -1.1,-1.1 -1.3,-4.9 -5.1,-8.7 -10,-10 -0.6,-0.1 -0.9,-0.6 -1.1,-1.1 -0.1,-0.6 0,-1.1 0.4,-1.5 l 6.5,-6.6 c 3.7,-3.7 9.7,-3.7 13.4,0 3.7,3.7 3.7,9.7 0,13.4 l -6.6,6.5 c -0.3,0.3 -0.7,0.5 -1.1,0.5 z M 98.1,77.6 c 4,1.8 7.2,4.9 8.9,8.9 l 4.8,-4.8 c 1.6,-1.6 2.3,-3.9 1.8,-6.1 -0.6,-2.2 -2.3,-3.9 -4.5,-4.5 -2.2,-0.6 -4.6,0.1 -6.1,1.8 z"
       id="path34"
       style="fill:#244583" />
    <path
       class="st0"
       d="m 93.4,100.6 c -3.5,0 -6.7,-1.9 -8.3,-4.9 -1.6,-3.1 -1.5,-6.8 0.4,-9.7 0.1,-0.2 0.3,-0.3 0.4,-0.4 2.9,-1.9 6.6,-2.1 9.7,-0.4 3.1,1.6 4.9,4.8 4.9,8.3 0,1.8 -0.6,3.6 -1.6,5.2 -0.1,0.2 -0.3,0.3 -0.4,0.4 -1.4,1 -3.2,1.5 -5.1,1.5 z M 88,88 c -1.4,2.5 -1.1,5.6 1,7.6 2,2 5.2,2.4 7.6,1 0.6,-1 0.9,-2.1 0.9,-3.2 0,-2.3 -1.2,-4.4 -3.2,-5.5 -2,-1.1 -4.4,-1 -6.3,0.1 z"
       id="path36"
       style="fill:#244583" />
    <path
       class="st0"
       d="m 106.4,90.9 c -0.1,0 -0.2,0 -0.4,-0.1 -0.6,-0.1 -0.9,-0.6 -1.1,-1.1 -1.3,-4.9 -5.1,-8.7 -10,-10 -0.6,-0.1 -0.9,-0.6 -1.1,-1.1 -0.1,-0.6 0,-1.1 0.4,-1.5 l 6.5,-6.6 c 3.7,-3.7 9.7,-3.7 13.4,0 3.7,3.7 3.7,9.7 0,13.4 l -6.6,6.5 c -0.3,0.3 -0.7,0.5 -1.1,0.5 z M 98.1,77.6 c 4,1.8 7.2,4.9 8.9,8.9 l 4.8,-4.8 c 1.6,-1.6 2.3,-3.9 1.8,-6.1 -0.6,-2.2 -2.3,-3.9 -4.5,-4.5 -2.2,-0.6 -4.6,0.1 -6.1,1.8 z"
       id="path38"
       style="fill:#244583" />
    <path
       class="st0"
       d="m 77.2,124.7 c -7,0 -13.3,-4.2 -16,-10.7 C 58.5,107.6 60,100.1 65,95.1 L 78.9,81.2 c 0.4,-0.4 0.9,-0.8 1.3,-1.2 0.6,-0.5 1.5,-0.4 2.1,0.1 0.6,0.6 0.6,1.4 0.1,2.1 -2.9,3.6 -3.9,8.3 -2.7,12.6 0.1,0.6 0,1.1 -0.4,1.5 l -6.6,6.6 c -2.4,2.5 -2.3,6.4 0.1,8.8 2.4,2.4 6.4,2.5 8.8,0.1 L 95.5,97.9 c 0.3,-0.3 0.6,-0.6 0.8,-1 0.7,-1.1 1,-2.3 1.1,-3.5 0,-2.3 -1.3,-4.4 -3.3,-5.6 -2.1,-1.1 -4.5,-1 -6.4,0.3 -0.6,0.4 -1.4,0.3 -1.9,-0.2 -0.5,-0.5 -0.6,-1.3 -0.2,-1.9 0.4,-0.6 0.8,-1.1 1.2,-1.5 l 7.3,-7.4 c 0.4,-0.4 0.9,-0.6 1.5,-0.4 5.7,1.5 10.2,5.8 12,11.4 1.8,5.6 0.7,11.7 -3.1,16.3 v 0.1 c -0.4,0.4 -0.7,0.9 -1.1,1.3 l -14,13.9 c -3.2,3.2 -7.5,5 -12.2,5 z m -0.8,-36.5 -9.2,9.1 c -5.4,5.6 -5.4,14.4 0.1,19.9 5.5,5.5 14.4,5.6 19.9,0.1 l 13.9,-13.9 c 0.3,-0.3 0.6,-0.7 0.9,-1.1 l 0.1,-0.1 c 2.9,-3.6 3.9,-8.4 2.6,-12.9 -1.3,-4.4 -4.7,-8 -9.1,-9.5 l -4,4.1 c 3.4,0.2 6.4,2.1 7.9,5.1 1.5,3 1.3,6.6 -0.6,9.4 -0.4,0.6 -0.7,1.1 -1.2,1.5 l -13.9,13.9 c -3.7,3.7 -9.7,3.7 -13.4,0 -3.7,-3.7 -3.7,-9.7 0,-13.4 l 5.9,-5.9 C 76.1,92.6 76,90.4 76.4,88.2 Z"
       id="path40"
       style="fill:#244583" />
    <path
       class="st0"
       d="m 93.4,100.6 c -3.5,0 -6.7,-1.9 -8.3,-4.9 -1.6,-3.1 -1.5,-6.8 0.4,-9.7 0.1,-0.2 0.3,-0.3 0.4,-0.4 3.8,-2.4 8.7,-1.9 11.9,1.2 3.2,3.2 3.7,8.1 1.2,11.9 -0.1,0.2 -0.3,0.3 -0.4,0.4 -1.5,1 -3.3,1.5 -5.2,1.5 z M 88,88 c -1.4,2.5 -1.1,5.6 1,7.6 2,2 5.2,2.4 7.6,1 0.6,-1 0.9,-2.1 0.9,-3.2 0,-2.3 -1.2,-4.3 -3.2,-5.4 -1.9,-1.1 -4.4,-1.1 -6.3,0 z"
       id="path42"
       style="fill:#244583" />
    <path
       class="st0"
       d="m 77.2,116.8 c -3.8,0 -7.3,-2.3 -8.7,-5.8 -1.4,-3.5 -0.6,-7.6 2.1,-10.3 l 6.5,-6.5 c 0.4,-0.4 1,-0.6 1.5,-0.4 0.6,0.1 0.9,0.6 1.1,1.1 1.3,4.9 5.1,8.7 10,10 0.6,0.1 0.9,0.6 1.1,1.1 0.1,0.6 0,1.1 -0.4,1.5 l -6.5,6.5 c -1.7,1.8 -4.2,2.8 -6.7,2.8 z m 0.4,-18.7 -4.8,4.8 c -2.4,2.5 -2.3,6.4 0.1,8.8 2.4,2.4 6.4,2.5 8.8,0.1 l 4.8,-4.8 c -4,-1.7 -7.2,-4.9 -8.9,-8.9 z"
       id="path44"
       style="fill:#244583" />
    <path
       class="st0"
       d="m 93.4,100.6 c -3.5,0 -6.7,-1.9 -8.3,-4.9 -1.6,-3.1 -1.5,-6.8 0.4,-9.7 0.1,-0.2 0.3,-0.3 0.4,-0.4 3.8,-2.4 8.7,-1.9 11.9,1.2 3.2,3.2 3.7,8.1 1.2,11.9 -0.1,0.2 -0.3,0.3 -0.4,0.4 -1.5,1 -3.3,1.5 -5.2,1.5 z M 88,88 c -1.4,2.5 -1.1,5.6 1,7.6 2,2 5.2,2.4 7.6,1 0.6,-1 0.9,-2.1 0.9,-3.2 0,-2.3 -1.2,-4.3 -3.2,-5.4 -1.9,-1.1 -4.4,-1.1 -6.3,0 z"
       id="path46"
       style="fill:#244583" />
    <path
       class="st0"
       d="m 77.2,116.8 c -3.8,0 -7.3,-2.3 -8.7,-5.8 -1.4,-3.5 -0.6,-7.6 2.1,-10.3 l 6.5,-6.5 c 0.4,-0.4 1,-0.6 1.5,-0.4 0.6,0.1 0.9,0.6 1.1,1.1 1.3,4.9 5.1,8.7 10,10 0.6,0.1 0.9,0.6 1.1,1.1 0.1,0.6 0,1.1 -0.4,1.5 l -6.5,6.5 c -1.7,1.8 -4.2,2.8 -6.7,2.8 z m 0.4,-18.7 -4.8,4.8 c -2.4,2.5 -2.3,6.4 0.1,8.8 2.4,2.4 6.4,2.5 8.8,0.1 l 4.8,-4.8 c -4,-1.7 -7.2,-4.9 -8.9,-8.9 z"
       id="path48"
       style="fill:#244583" />
  </g>
</svg>
