<?xml version="1.0" encoding="utf-8"?>
<!-- Generator: Adobe Illustrator 15.0.3, SVG Export Plug-In . SVG Version: 6.00 Build 0)  -->
<!DOCTYPE svg PUBLIC "-//W3C//DTD SVG 1.1//EN" "http://www.w3.org/Graphics/SVG/1.1/DTD/svg11.dtd">
<svg version="1.1" id="Ebene_1" xmlns="http://www.w3.org/2000/svg" xmlns:xlink="http://www.w3.org/1999/xlink" x="0px" y="0px"
	 width="542px" height="542px" viewBox="0 0 542 542" enable-background="new 0 0 542 542" xml:space="preserve">
<g>
	<rect y="510" fill-rule="evenodd" clip-rule="evenodd" fill="#808080" width="32" height="32"/>
	<rect y="476" fill-rule="evenodd" clip-rule="evenodd" fill="#808080" width="32" height="32"/>
	<rect y="442" fill-rule="evenodd" clip-rule="evenodd" fill="#808080" width="32" height="32"/>
	<rect y="408" fill-rule="evenodd" clip-rule="evenodd" fill="#808080" width="32" height="32"/>
	<rect y="374" fill-rule="evenodd" clip-rule="evenodd" fill="#808080" width="32" height="32"/>
	<rect y="340" fill-rule="evenodd" clip-rule="evenodd" fill="#808080" width="32" height="32"/>
	<rect y="306" fill-rule="evenodd" clip-rule="evenodd" fill="#808080" width="32" height="32"/>
	<rect y="272" fill-rule="evenodd" clip-rule="evenodd" fill="#808080" width="32" height="32"/>
	<rect y="238" fill-rule="evenodd" clip-rule="evenodd" fill="#808080" width="32" height="32"/>
	<rect y="204" fill-rule="evenodd" clip-rule="evenodd" fill="#808080" width="32" height="32"/>
	<rect y="170" fill-rule="evenodd" clip-rule="evenodd" fill="#808080" width="32" height="32"/>
	<rect y="136" fill-rule="evenodd" clip-rule="evenodd" fill="#808080" width="32" height="32"/>
	<rect y="102" fill-rule="evenodd" clip-rule="evenodd" fill="#808080" width="32" height="32"/>
	<rect y="68" fill-rule="evenodd" clip-rule="evenodd" fill="#808080" width="32" height="32"/>
	<rect y="34" fill-rule="evenodd" clip-rule="evenodd" fill="#808080" width="32" height="32"/>
	<rect fill-rule="evenodd" clip-rule="evenodd" fill="#808080" width="32" height="32"/>
	<rect x="34" y="510" fill-rule="evenodd" clip-rule="evenodd" fill="#808080" width="32" height="32"/>
	<rect x="34" y="476" fill-rule="evenodd" clip-rule="evenodd" fill="#808080" width="32" height="32"/>
	<rect x="34" y="442" fill-rule="evenodd" clip-rule="evenodd" fill="#808080" width="32" height="32"/>
	<rect x="34" y="408" fill-rule="evenodd" clip-rule="evenodd" fill="#808080" width="32" height="32"/>
	<rect x="34" y="374" fill-rule="evenodd" clip-rule="evenodd" fill="#808080" width="32" height="32"/>
	<rect x="34" y="340" fill-rule="evenodd" clip-rule="evenodd" fill="#808080" width="32" height="32"/>
	<rect x="34" y="306" fill-rule="evenodd" clip-rule="evenodd" fill="#808080" width="32" height="32"/>
	<rect x="34" y="272" fill-rule="evenodd" clip-rule="evenodd" fill="#808080" width="32" height="32"/>
	<rect x="34" y="238" fill-rule="evenodd" clip-rule="evenodd" fill="#808080" width="32" height="32"/>
	<rect x="34" y="204" fill-rule="evenodd" clip-rule="evenodd" fill="#808080" width="32" height="32"/>
	<rect x="34" y="170" fill-rule="evenodd" clip-rule="evenodd" fill="#808080" width="32" height="32"/>
	<rect x="34" y="136" fill-rule="evenodd" clip-rule="evenodd" fill="#808080" width="32" height="32"/>
	<rect x="34" y="102" fill-rule="evenodd" clip-rule="evenodd" fill="#808080" width="32" height="32"/>
	<rect x="34" y="68" fill-rule="evenodd" clip-rule="evenodd" fill="#808080" width="32" height="32"/>
	<rect x="34" y="34" fill-rule="evenodd" clip-rule="evenodd" fill="#808080" width="32" height="32"/>
	<rect x="34" fill-rule="evenodd" clip-rule="evenodd" fill="#808080" width="32" height="32"/>
	<rect x="68" y="510" fill-rule="evenodd" clip-rule="evenodd" fill="#808080" width="32" height="32"/>
	<rect x="68" y="476" fill-rule="evenodd" clip-rule="evenodd" fill="#808080" width="32" height="32"/>
	<rect x="68" y="442" fill-rule="evenodd" clip-rule="evenodd" fill="#808080" width="32" height="32"/>
	<rect x="68" y="408" fill-rule="evenodd" clip-rule="evenodd" fill="#808080" width="32" height="32"/>
	<rect x="68" y="374" fill-rule="evenodd" clip-rule="evenodd" fill="#808080" width="32" height="32"/>
	<rect x="68" y="340" fill-rule="evenodd" clip-rule="evenodd" fill="#808080" width="32" height="32"/>
	<rect x="68" y="306" fill-rule="evenodd" clip-rule="evenodd" fill="#808080" width="32" height="32"/>
	<rect x="68" y="272" fill-rule="evenodd" clip-rule="evenodd" fill="#808080" width="32" height="32"/>
	<rect x="68" y="238" fill-rule="evenodd" clip-rule="evenodd" fill="#808080" width="32" height="32"/>
	<rect x="68" y="204" fill-rule="evenodd" clip-rule="evenodd" fill="#808080" width="32" height="32"/>
	<rect x="68" y="170" fill-rule="evenodd" clip-rule="evenodd" fill="#808080" width="32" height="32"/>
	<rect x="68" y="136" fill-rule="evenodd" clip-rule="evenodd" fill="#808080" width="32" height="32"/>
	<rect x="68" y="102" fill-rule="evenodd" clip-rule="evenodd" fill="#808080" width="32" height="32"/>
	<rect x="68" y="68" fill-rule="evenodd" clip-rule="evenodd" fill="#808080" width="32" height="32"/>
	<rect x="68" y="34" fill-rule="evenodd" clip-rule="evenodd" fill="#808080" width="32" height="32"/>
	<rect x="68" fill-rule="evenodd" clip-rule="evenodd" fill="#808080" width="32" height="32"/>
	<rect x="102" y="510" fill-rule="evenodd" clip-rule="evenodd" fill="#808080" width="32" height="32"/>
	<rect x="102" y="476" fill-rule="evenodd" clip-rule="evenodd" fill="#808080" width="32" height="32"/>
	<rect x="102" y="442" fill-rule="evenodd" clip-rule="evenodd" fill="#808080" width="32" height="32"/>
	<rect x="102" y="408" fill-rule="evenodd" clip-rule="evenodd" fill="#808080" width="32" height="32"/>
	<rect x="102" y="374" fill-rule="evenodd" clip-rule="evenodd" fill="#808080" width="32" height="32"/>
	<rect x="102" y="340" fill-rule="evenodd" clip-rule="evenodd" fill="#808080" width="32" height="32"/>
	<rect x="102" y="306" fill-rule="evenodd" clip-rule="evenodd" fill="#808080" width="32" height="32"/>
	<rect x="102" y="272" fill-rule="evenodd" clip-rule="evenodd" fill="#808080" width="32" height="32"/>
	<rect x="102" y="238" fill-rule="evenodd" clip-rule="evenodd" fill="#808080" width="32" height="32"/>
	<rect x="102" y="204" fill-rule="evenodd" clip-rule="evenodd" fill="#808080" width="32" height="32"/>
	<rect x="102" y="170" fill-rule="evenodd" clip-rule="evenodd" fill="#808080" width="32" height="32"/>
	<rect x="102" y="136" fill-rule="evenodd" clip-rule="evenodd" fill="#808080" width="32" height="32"/>
	<rect x="102" y="102" fill-rule="evenodd" clip-rule="evenodd" fill="#808080" width="32" height="32"/>
	<rect x="102" y="68" fill-rule="evenodd" clip-rule="evenodd" fill="#808080" width="32" height="32"/>
	<rect x="102" y="34" fill-rule="evenodd" clip-rule="evenodd" fill="#808080" width="32" height="32"/>
	<rect x="102" fill-rule="evenodd" clip-rule="evenodd" fill="#808080" width="32" height="32"/>
	<rect x="136" y="510" fill-rule="evenodd" clip-rule="evenodd" fill="#808080" width="32" height="32"/>
	<rect x="136" y="476" fill-rule="evenodd" clip-rule="evenodd" fill="#808080" width="32" height="32"/>
	<rect x="136" y="442" fill-rule="evenodd" clip-rule="evenodd" fill="#808080" width="32" height="32"/>
	<rect x="136" y="408" fill-rule="evenodd" clip-rule="evenodd" fill="#808080" width="32" height="32"/>
	<rect x="136" y="374" fill-rule="evenodd" clip-rule="evenodd" fill="#808080" width="32" height="32"/>
	<rect x="136" y="340" fill-rule="evenodd" clip-rule="evenodd" fill="#808080" width="32" height="32"/>
	<rect x="136" y="306" fill-rule="evenodd" clip-rule="evenodd" fill="#808080" width="32" height="32"/>
	<rect x="136" y="272" fill-rule="evenodd" clip-rule="evenodd" fill="#808080" width="32" height="32"/>
	<rect x="136" y="238" fill-rule="evenodd" clip-rule="evenodd" fill="#808080" width="32" height="32"/>
	<rect x="136" y="204" fill-rule="evenodd" clip-rule="evenodd" fill="#808080" width="32" height="32"/>
	<rect x="136" y="170" fill-rule="evenodd" clip-rule="evenodd" fill="#808080" width="32" height="32"/>
	<rect x="136" y="136" fill-rule="evenodd" clip-rule="evenodd" fill="#808080" width="32" height="32"/>
	<rect x="136" y="102" fill-rule="evenodd" clip-rule="evenodd" fill="#808080" width="32" height="32"/>
	<rect x="136" y="68" fill-rule="evenodd" clip-rule="evenodd" fill="#808080" width="32" height="32"/>
	<rect x="136" y="34" fill-rule="evenodd" clip-rule="evenodd" fill="#808080" width="32" height="32"/>
	<rect x="136" fill-rule="evenodd" clip-rule="evenodd" fill="#808080" width="32" height="32"/>
	<rect x="170" y="510" fill-rule="evenodd" clip-rule="evenodd" fill="#808080" width="32" height="32"/>
	<rect x="170" y="476" fill-rule="evenodd" clip-rule="evenodd" fill="#808080" width="32" height="32"/>
	<rect x="170" y="442" fill-rule="evenodd" clip-rule="evenodd" fill="#808080" width="32" height="32"/>
	<rect x="170" y="408" fill-rule="evenodd" clip-rule="evenodd" fill="#808080" width="32" height="32"/>
	<rect x="170" y="374" fill-rule="evenodd" clip-rule="evenodd" fill="#808080" width="32" height="32"/>
	<rect x="170" y="340" fill-rule="evenodd" clip-rule="evenodd" fill="#808080" width="32" height="32"/>
	<rect x="170" y="306" fill-rule="evenodd" clip-rule="evenodd" fill="#808080" width="32" height="32"/>
	<rect x="170" y="272" fill-rule="evenodd" clip-rule="evenodd" fill="#808080" width="32" height="32"/>
	<rect x="170" y="238" fill-rule="evenodd" clip-rule="evenodd" fill="#808080" width="32" height="32"/>
	<rect x="170" y="204" fill-rule="evenodd" clip-rule="evenodd" fill="#808080" width="32" height="32"/>
	<rect x="170" y="170" fill-rule="evenodd" clip-rule="evenodd" fill="#808080" width="32" height="32"/>
	<rect x="170" y="136" fill-rule="evenodd" clip-rule="evenodd" fill="#808080" width="32" height="32"/>
	<rect x="170" y="102" fill-rule="evenodd" clip-rule="evenodd" fill="#808080" width="32" height="32"/>
	<rect x="170" y="68" fill-rule="evenodd" clip-rule="evenodd" fill="#808080" width="32" height="32"/>
	<rect x="170" y="34" fill-rule="evenodd" clip-rule="evenodd" fill="#808080" width="32" height="32"/>
	<rect x="170" fill-rule="evenodd" clip-rule="evenodd" fill="#808080" width="32" height="32"/>
	<rect x="204" y="510" fill-rule="evenodd" clip-rule="evenodd" fill="#808080" width="32" height="32"/>
	<rect x="204" y="476" fill-rule="evenodd" clip-rule="evenodd" fill="#808080" width="32" height="32"/>
	<rect x="204" y="442" fill-rule="evenodd" clip-rule="evenodd" fill="#808080" width="32" height="32"/>
	<rect x="204" y="408" fill-rule="evenodd" clip-rule="evenodd" fill="#808080" width="32" height="32"/>
	<rect x="204" y="374" fill-rule="evenodd" clip-rule="evenodd" fill="#808080" width="32" height="32"/>
	<rect x="204" y="340" fill-rule="evenodd" clip-rule="evenodd" fill="#808080" width="32" height="32"/>
	<rect x="204" y="306" fill-rule="evenodd" clip-rule="evenodd" fill="#808080" width="32" height="32"/>
	<rect x="204" y="272" fill-rule="evenodd" clip-rule="evenodd" fill="#808080" width="32" height="32"/>
	<rect x="204" y="238" fill-rule="evenodd" clip-rule="evenodd" fill="#808080" width="32" height="32"/>
	<rect x="204" y="204" fill-rule="evenodd" clip-rule="evenodd" fill="#808080" width="32" height="32"/>
	<rect x="204" y="170" fill-rule="evenodd" clip-rule="evenodd" fill="#808080" width="32" height="32"/>
	<rect x="204" y="136" fill-rule="evenodd" clip-rule="evenodd" fill="#808080" width="32" height="32"/>
	<rect x="204" y="102" fill-rule="evenodd" clip-rule="evenodd" fill="#808080" width="32" height="32"/>
	<rect x="204" y="68" fill-rule="evenodd" clip-rule="evenodd" fill="#808080" width="32" height="32"/>
	<rect x="204" y="34" fill-rule="evenodd" clip-rule="evenodd" fill="#808080" width="32" height="32"/>
	<rect x="204" fill-rule="evenodd" clip-rule="evenodd" fill="#808080" width="32" height="32"/>
	<rect x="238" y="510" fill-rule="evenodd" clip-rule="evenodd" fill="#808080" width="32" height="32"/>
	<rect x="238" y="476" fill-rule="evenodd" clip-rule="evenodd" fill="#808080" width="32" height="32"/>
	<rect x="238" y="442" fill-rule="evenodd" clip-rule="evenodd" fill="#808080" width="32" height="32"/>
	<rect x="238" y="408" fill-rule="evenodd" clip-rule="evenodd" fill="#808080" width="32" height="32"/>
	<rect x="238" y="374" fill-rule="evenodd" clip-rule="evenodd" fill="#808080" width="32" height="32"/>
	<rect x="238" y="340" fill-rule="evenodd" clip-rule="evenodd" fill="#808080" width="32" height="32"/>
	<rect x="238" y="306" fill-rule="evenodd" clip-rule="evenodd" fill="#808080" width="32" height="32"/>
	<rect x="238" y="272" fill-rule="evenodd" clip-rule="evenodd" fill="#808080" width="32" height="32"/>
	<rect x="238" y="238" fill-rule="evenodd" clip-rule="evenodd" fill="#808080" width="32" height="32"/>
	<rect x="238" y="204" fill-rule="evenodd" clip-rule="evenodd" fill="#808080" width="32" height="32"/>
	<rect x="238" y="170" fill-rule="evenodd" clip-rule="evenodd" fill="#808080" width="32" height="32"/>
	<rect x="238" y="136" fill-rule="evenodd" clip-rule="evenodd" fill="#808080" width="32" height="32"/>
	<rect x="238" y="102" fill-rule="evenodd" clip-rule="evenodd" fill="#808080" width="32" height="32"/>
	<rect x="238" y="68" fill-rule="evenodd" clip-rule="evenodd" fill="#808080" width="32" height="32"/>
	<rect x="238" y="34" fill-rule="evenodd" clip-rule="evenodd" fill="#808080" width="32" height="32"/>
	<rect x="238" fill-rule="evenodd" clip-rule="evenodd" fill="#808080" width="32" height="32"/>
	<rect x="272" y="510" fill-rule="evenodd" clip-rule="evenodd" fill="#808080" width="32" height="32"/>
	<rect x="272" y="476" fill-rule="evenodd" clip-rule="evenodd" fill="#808080" width="32" height="32"/>
	<rect x="272" y="442" fill-rule="evenodd" clip-rule="evenodd" fill="#808080" width="32" height="32"/>
	<rect x="272" y="408" fill-rule="evenodd" clip-rule="evenodd" fill="#808080" width="32" height="32"/>
	<rect x="272" y="374" fill-rule="evenodd" clip-rule="evenodd" fill="#808080" width="32" height="32"/>
	<rect x="272" y="340" fill-rule="evenodd" clip-rule="evenodd" fill="#808080" width="32" height="32"/>
	<rect x="272" y="306" fill-rule="evenodd" clip-rule="evenodd" fill="#808080" width="32" height="32"/>
	<rect x="272" y="272" fill-rule="evenodd" clip-rule="evenodd" fill="#808080" width="32" height="32"/>
	<rect x="272" y="238" fill-rule="evenodd" clip-rule="evenodd" fill="#808080" width="32" height="32"/>
	<rect x="272" y="204" fill-rule="evenodd" clip-rule="evenodd" fill="#808080" width="32" height="32"/>
	<rect x="272" y="170" fill-rule="evenodd" clip-rule="evenodd" fill="#808080" width="32" height="32"/>
	<rect x="272" y="136" fill-rule="evenodd" clip-rule="evenodd" fill="#808080" width="32" height="32"/>
	<rect x="272" y="102" fill-rule="evenodd" clip-rule="evenodd" fill="#808080" width="32" height="32"/>
	<rect x="272" y="68" fill-rule="evenodd" clip-rule="evenodd" fill="#808080" width="32" height="32"/>
	<rect x="272" y="34" fill-rule="evenodd" clip-rule="evenodd" fill="#808080" width="32" height="32"/>
	<rect x="272" fill-rule="evenodd" clip-rule="evenodd" fill="#808080" width="32" height="32"/>
	<rect x="306" y="510" fill-rule="evenodd" clip-rule="evenodd" fill="#808080" width="32" height="32"/>
	<rect x="306" y="476" fill-rule="evenodd" clip-rule="evenodd" fill="#808080" width="32" height="32"/>
	<rect x="306" y="442" fill-rule="evenodd" clip-rule="evenodd" fill="#808080" width="32" height="32"/>
	<rect x="306" y="408" fill-rule="evenodd" clip-rule="evenodd" fill="#808080" width="32" height="32"/>
	<rect x="306" y="374" fill-rule="evenodd" clip-rule="evenodd" fill="#808080" width="32" height="32"/>
	<rect x="306" y="340" fill-rule="evenodd" clip-rule="evenodd" fill="#808080" width="32" height="32"/>
	<rect x="306" y="306" fill-rule="evenodd" clip-rule="evenodd" fill="#808080" width="32" height="32"/>
	<rect x="306" y="272" fill-rule="evenodd" clip-rule="evenodd" fill="#808080" width="32" height="32"/>
	<rect x="306" y="238" fill-rule="evenodd" clip-rule="evenodd" fill="#808080" width="32" height="32"/>
	<rect x="306" y="204" fill-rule="evenodd" clip-rule="evenodd" fill="#808080" width="32" height="32"/>
	<rect x="306" y="170" fill-rule="evenodd" clip-rule="evenodd" fill="#808080" width="32" height="32"/>
	<rect x="306" y="136" fill-rule="evenodd" clip-rule="evenodd" fill="#808080" width="32" height="32"/>
	<rect x="306" y="102" fill-rule="evenodd" clip-rule="evenodd" fill="#808080" width="32" height="32"/>
	<rect x="306" y="68" fill-rule="evenodd" clip-rule="evenodd" fill="#808080" width="32" height="32"/>
	<rect x="306" y="34" fill-rule="evenodd" clip-rule="evenodd" fill="#808080" width="32" height="32"/>
	<rect x="306" fill-rule="evenodd" clip-rule="evenodd" fill="#808080" width="32" height="32"/>
	<rect x="340" y="510" fill-rule="evenodd" clip-rule="evenodd" fill="#808080" width="32" height="32"/>
	<rect x="340" y="476" fill-rule="evenodd" clip-rule="evenodd" fill="#808080" width="32" height="32"/>
	<rect x="340" y="442" fill-rule="evenodd" clip-rule="evenodd" fill="#808080" width="32" height="32"/>
	<rect x="340" y="408" fill-rule="evenodd" clip-rule="evenodd" fill="#808080" width="32" height="32"/>
	<rect x="340" y="374" fill-rule="evenodd" clip-rule="evenodd" fill="#808080" width="32" height="32"/>
	<rect x="340" y="340" fill-rule="evenodd" clip-rule="evenodd" fill="#808080" width="32" height="32"/>
	<rect x="340" y="306" fill-rule="evenodd" clip-rule="evenodd" fill="#808080" width="32" height="32"/>
	<rect x="340" y="272" fill-rule="evenodd" clip-rule="evenodd" fill="#808080" width="32" height="32"/>
	<rect x="340" y="238" fill-rule="evenodd" clip-rule="evenodd" fill="#808080" width="32" height="32"/>
	<rect x="340" y="204" fill-rule="evenodd" clip-rule="evenodd" fill="#808080" width="32" height="32"/>
	<rect x="340" y="170" fill-rule="evenodd" clip-rule="evenodd" fill="#808080" width="32" height="32"/>
	<rect x="340" y="136" fill-rule="evenodd" clip-rule="evenodd" fill="#808080" width="32" height="32"/>
	<rect x="340" y="102" fill-rule="evenodd" clip-rule="evenodd" fill="#808080" width="32" height="32"/>
	<rect x="340" y="68" fill-rule="evenodd" clip-rule="evenodd" fill="#808080" width="32" height="32"/>
	<rect x="340" y="34" fill-rule="evenodd" clip-rule="evenodd" fill="#808080" width="32" height="32"/>
	<rect x="340" fill-rule="evenodd" clip-rule="evenodd" fill="#808080" width="32" height="32"/>
	<rect x="374" y="510" fill-rule="evenodd" clip-rule="evenodd" fill="#808080" width="32" height="32"/>
	<rect x="374" y="476" fill-rule="evenodd" clip-rule="evenodd" fill="#808080" width="32" height="32"/>
	<rect x="374" y="442" fill-rule="evenodd" clip-rule="evenodd" fill="#808080" width="32" height="32"/>
	<rect x="374" y="408" fill-rule="evenodd" clip-rule="evenodd" fill="#808080" width="32" height="32"/>
	<rect x="374" y="374" fill-rule="evenodd" clip-rule="evenodd" fill="#808080" width="32" height="32"/>
	<rect x="374" y="340" fill-rule="evenodd" clip-rule="evenodd" fill="#808080" width="32" height="32"/>
	<rect x="374" y="306" fill-rule="evenodd" clip-rule="evenodd" fill="#808080" width="32" height="32"/>
	<rect x="374" y="272" fill-rule="evenodd" clip-rule="evenodd" fill="#808080" width="32" height="32"/>
	<rect x="374" y="238" fill-rule="evenodd" clip-rule="evenodd" fill="#808080" width="32" height="32"/>
	<rect x="374" y="204" fill-rule="evenodd" clip-rule="evenodd" fill="#808080" width="32" height="32"/>
	<rect x="374" y="170" fill-rule="evenodd" clip-rule="evenodd" fill="#808080" width="32" height="32"/>
	<rect x="374" y="136" fill-rule="evenodd" clip-rule="evenodd" fill="#808080" width="32" height="32"/>
	<rect x="374" y="102" fill-rule="evenodd" clip-rule="evenodd" fill="#808080" width="32" height="32"/>
	<rect x="374" y="68" fill-rule="evenodd" clip-rule="evenodd" fill="#808080" width="32" height="32"/>
	<rect x="374" y="34" fill-rule="evenodd" clip-rule="evenodd" fill="#808080" width="32" height="32"/>
	<rect x="374" fill-rule="evenodd" clip-rule="evenodd" fill="#808080" width="32" height="32"/>
	<rect x="408" y="510" fill-rule="evenodd" clip-rule="evenodd" fill="#808080" width="32" height="32"/>
	<rect x="408" y="476" fill-rule="evenodd" clip-rule="evenodd" fill="#808080" width="32" height="32"/>
	<rect x="408" y="442" fill-rule="evenodd" clip-rule="evenodd" fill="#808080" width="32" height="32"/>
	<rect x="408" y="408" fill-rule="evenodd" clip-rule="evenodd" fill="#808080" width="32" height="32"/>
	<rect x="408" y="374" fill-rule="evenodd" clip-rule="evenodd" fill="#808080" width="32" height="32"/>
	<rect x="408" y="340" fill-rule="evenodd" clip-rule="evenodd" fill="#808080" width="32" height="32"/>
	<rect x="408" y="306" fill-rule="evenodd" clip-rule="evenodd" fill="#808080" width="32" height="32"/>
	<rect x="408" y="272" fill-rule="evenodd" clip-rule="evenodd" fill="#808080" width="32" height="32"/>
	<rect x="408" y="238" fill-rule="evenodd" clip-rule="evenodd" fill="#808080" width="32" height="32"/>
	<rect x="408" y="204" fill-rule="evenodd" clip-rule="evenodd" fill="#808080" width="32" height="32"/>
	<rect x="408" y="170" fill-rule="evenodd" clip-rule="evenodd" fill="#808080" width="32" height="32"/>
	<rect x="408" y="136" fill-rule="evenodd" clip-rule="evenodd" fill="#808080" width="32" height="32"/>
	<rect x="408" y="102" fill-rule="evenodd" clip-rule="evenodd" fill="#808080" width="32" height="32"/>
	<rect x="408" y="68" fill-rule="evenodd" clip-rule="evenodd" fill="#808080" width="32" height="32"/>
	<rect x="408" y="34" fill-rule="evenodd" clip-rule="evenodd" fill="#808080" width="32" height="32"/>
	<rect x="408" fill-rule="evenodd" clip-rule="evenodd" fill="#808080" width="32" height="32"/>
	<rect x="442" y="510" fill-rule="evenodd" clip-rule="evenodd" fill="#808080" width="32" height="32"/>
	<rect x="442" y="476" fill-rule="evenodd" clip-rule="evenodd" fill="#808080" width="32" height="32"/>
	<rect x="442" y="442" fill-rule="evenodd" clip-rule="evenodd" fill="#808080" width="32" height="32"/>
	<rect x="442" y="408" fill-rule="evenodd" clip-rule="evenodd" fill="#808080" width="32" height="32"/>
	<rect x="442" y="374" fill-rule="evenodd" clip-rule="evenodd" fill="#808080" width="32" height="32"/>
	<rect x="442" y="340" fill-rule="evenodd" clip-rule="evenodd" fill="#808080" width="32" height="32"/>
	<rect x="442" y="306" fill-rule="evenodd" clip-rule="evenodd" fill="#808080" width="32" height="32"/>
	<rect x="442" y="272" fill-rule="evenodd" clip-rule="evenodd" fill="#808080" width="32" height="32"/>
	<rect x="442" y="238" fill-rule="evenodd" clip-rule="evenodd" fill="#808080" width="32" height="32"/>
	<rect x="442" y="204" fill-rule="evenodd" clip-rule="evenodd" fill="#808080" width="32" height="32"/>
	<rect x="442" y="170" fill-rule="evenodd" clip-rule="evenodd" fill="#808080" width="32" height="32"/>
	<rect x="442" y="136" fill-rule="evenodd" clip-rule="evenodd" fill="#808080" width="32" height="32"/>
	<rect x="442" y="102" fill-rule="evenodd" clip-rule="evenodd" fill="#808080" width="32" height="32"/>
	<rect x="442" y="68" fill-rule="evenodd" clip-rule="evenodd" fill="#808080" width="32" height="32"/>
	<rect x="442" y="34" fill-rule="evenodd" clip-rule="evenodd" fill="#808080" width="32" height="32"/>
	<rect x="442" fill-rule="evenodd" clip-rule="evenodd" fill="#808080" width="32" height="32"/>
	<rect x="476" y="510" fill-rule="evenodd" clip-rule="evenodd" fill="#808080" width="32" height="32"/>
	<rect x="476" y="476" fill-rule="evenodd" clip-rule="evenodd" fill="#808080" width="32" height="32"/>
	<rect x="476" y="442" fill-rule="evenodd" clip-rule="evenodd" fill="#808080" width="32" height="32"/>
	<rect x="476" y="408" fill-rule="evenodd" clip-rule="evenodd" fill="#808080" width="32" height="32"/>
	<rect x="476" y="374" fill-rule="evenodd" clip-rule="evenodd" fill="#808080" width="32" height="32"/>
	<rect x="476" y="340" fill-rule="evenodd" clip-rule="evenodd" fill="#808080" width="32" height="32"/>
	<rect x="476" y="306" fill-rule="evenodd" clip-rule="evenodd" fill="#808080" width="32" height="32"/>
	<rect x="476" y="272" fill-rule="evenodd" clip-rule="evenodd" fill="#808080" width="32" height="32"/>
	<rect x="476" y="238" fill-rule="evenodd" clip-rule="evenodd" fill="#808080" width="32" height="32"/>
	<rect x="476" y="204" fill-rule="evenodd" clip-rule="evenodd" fill="#808080" width="32" height="32"/>
	<rect x="476" y="170" fill-rule="evenodd" clip-rule="evenodd" fill="#808080" width="32" height="32"/>
	<rect x="476" y="136" fill-rule="evenodd" clip-rule="evenodd" fill="#808080" width="32" height="32"/>
	<rect x="476" y="102" fill-rule="evenodd" clip-rule="evenodd" fill="#808080" width="32" height="32"/>
	<rect x="476" y="68" fill-rule="evenodd" clip-rule="evenodd" fill="#808080" width="32" height="32"/>
	<rect x="476" y="34" fill-rule="evenodd" clip-rule="evenodd" fill="#808080" width="32" height="32"/>
	<rect x="476" fill-rule="evenodd" clip-rule="evenodd" fill="#808080" width="32" height="32"/>
	<rect x="510" y="510" fill-rule="evenodd" clip-rule="evenodd" fill="#808080" width="32" height="32"/>
	<rect x="510" y="476" fill-rule="evenodd" clip-rule="evenodd" fill="#808080" width="32" height="32"/>
	<rect x="510" y="442" fill-rule="evenodd" clip-rule="evenodd" fill="#808080" width="32" height="32"/>
	<rect x="510" y="408" fill-rule="evenodd" clip-rule="evenodd" fill="#808080" width="32" height="32"/>
	<rect x="510" y="374" fill-rule="evenodd" clip-rule="evenodd" fill="#808080" width="32" height="32"/>
	<rect x="510" y="340" fill-rule="evenodd" clip-rule="evenodd" fill="#808080" width="32" height="32"/>
	<rect x="510" y="306" fill-rule="evenodd" clip-rule="evenodd" fill="#808080" width="32" height="32"/>
	<rect x="510" y="272" fill-rule="evenodd" clip-rule="evenodd" fill="#808080" width="32" height="32"/>
	<rect x="510" y="238" fill-rule="evenodd" clip-rule="evenodd" fill="#808080" width="32" height="32"/>
	<rect x="510" y="204" fill-rule="evenodd" clip-rule="evenodd" fill="#808080" width="32" height="32"/>
	<rect x="510" y="170" fill-rule="evenodd" clip-rule="evenodd" fill="#808080" width="32" height="32"/>
	<rect x="510" y="136" fill-rule="evenodd" clip-rule="evenodd" fill="#808080" width="32" height="32"/>
	<rect x="510" y="102" fill-rule="evenodd" clip-rule="evenodd" fill="#808080" width="32" height="32"/>
	<rect x="510" y="68" fill-rule="evenodd" clip-rule="evenodd" fill="#808080" width="32" height="32"/>
	<rect x="510" y="34" fill-rule="evenodd" clip-rule="evenodd" fill="#808080" width="32" height="32"/>
	<rect x="510" fill-rule="evenodd" clip-rule="evenodd" fill="#808080" width="32" height="32"/>
</g>
<g>
	<rect x="338" y="374" fill-rule="evenodd" clip-rule="evenodd" fill="#909090" width="68" height="66"/>
	<rect x="406" y="374" fill-rule="evenodd" clip-rule="evenodd" fill="#A0A0A0" width="68" height="66"/>
</g>
<g>
	<linearGradient id="SVGID_1_" gradientUnits="userSpaceOnUse" x1="68" y1="390.5" x2="338" y2="390.5">
		<stop  offset="0" style="stop-color:#FC0280"/>
		<stop  offset="1" style="stop-color:#000000"/>
	</linearGradient>
	<rect x="68" y="374" fill-rule="evenodd" clip-rule="evenodd" fill="url(#SVGID_1_)" width="270" height="33"/>
	<linearGradient id="SVGID_2_" gradientUnits="userSpaceOnUse" x1="68" y1="423.5" x2="338" y2="423.5">
		<stop  offset="0" style="stop-color:#7C00F8"/>
		<stop  offset="1" style="stop-color:#000000"/>
	</linearGradient>
	<rect x="68" y="407" fill-rule="evenodd" clip-rule="evenodd" fill="url(#SVGID_2_)" width="270" height="33"/>
</g>
<rect x="68" y="203" fill-rule="evenodd" clip-rule="evenodd" fill="#FFFFFF" width="406" height="170"/>
<g>
	<rect x="68" y="102" fill-rule="evenodd" clip-rule="evenodd" fill="#FFFFFF" width="50.75" height="101"/>
	<rect x="118.75" y="102" fill-rule="evenodd" clip-rule="evenodd" fill="#FFFF00" width="50.75" height="101"/>
	<rect x="169.5" y="102" fill-rule="evenodd" clip-rule="evenodd" fill="#00FFFF" width="50.75" height="101"/>
	<rect x="220.25" y="102" fill-rule="evenodd" clip-rule="evenodd" fill="#00FF01" width="50.75" height="101"/>
	<rect x="271" y="102" fill-rule="evenodd" clip-rule="evenodd" fill="#FF00FE" width="50.75" height="101"/>
	<rect x="321.75" y="102" fill-rule="evenodd" clip-rule="evenodd" fill="#FE0000" width="50.75" height="101"/>
	<rect x="372.5" y="102" fill-rule="evenodd" clip-rule="evenodd" fill="#0000FE" width="50.75" height="101"/>
	<rect x="423.25" y="102" fill-rule="evenodd" clip-rule="evenodd" width="50.75" height="101"/>
</g>
<path fill-rule="evenodd" clip-rule="evenodd" fill="none" stroke="#FFFFFF" stroke-width="3" d="M502.502,270.924
	c0,127.943-103.717,231.66-231.66,231.66c-127.945,0-231.664-103.717-231.664-231.66c0-127.945,103.719-231.664,231.664-231.664
	C398.785,39.26,502.502,142.979,502.502,270.924z"/>
<g>
	<rect x="68" y="203" fill-rule="evenodd" clip-rule="evenodd" width="101" height="67"/>
	<rect x="169" y="203" fill-rule="evenodd" clip-rule="evenodd" fill="#808080" width="101.001" height="67"/>
	<rect x="272" y="203" fill-rule="evenodd" clip-rule="evenodd" fill="#C0C0C0" width="101" height="67"/>
</g>
<g>
	<rect x="134" y="272" fill-rule="evenodd" clip-rule="evenodd" width="136" height="34"/>
	<rect x="272" y="272" fill-rule="evenodd" clip-rule="evenodd" width="136" height="34"/>
</g>
<g>
	<rect x="109.999" y="306" fill-rule="evenodd" clip-rule="evenodd" fill="#A0A0A0" width="10" height="34"/>
	<rect x="125.999" y="306" fill-rule="evenodd" clip-rule="evenodd" width="6" height="34"/>
	<rect x="137.999" y="306" fill-rule="evenodd" clip-rule="evenodd" width="6" height="34"/>
	<rect x="149.999" y="306" fill-rule="evenodd" clip-rule="evenodd" width="6" height="34"/>
	<rect x="161.999" y="306" fill-rule="evenodd" clip-rule="evenodd" width="6" height="34"/>
	<rect x="179.999" y="306" fill-rule="evenodd" clip-rule="evenodd" fill="#A0A0A0" width="20" height="34"/>
	<rect x="203.999" y="306" fill-rule="evenodd" clip-rule="evenodd" width="2" height="34"/>
	<rect x="209.999" y="306" fill-rule="evenodd" clip-rule="evenodd" width="2" height="34"/>
	<rect x="215.999" y="306" fill-rule="evenodd" clip-rule="evenodd" width="2" height="34"/>
	<rect x="221.999" y="306" fill-rule="evenodd" clip-rule="evenodd" width="2" height="34"/>
	<rect x="227.999" y="306" fill-rule="evenodd" clip-rule="evenodd" width="2" height="34"/>
	<rect x="233.999" y="306" fill-rule="evenodd" clip-rule="evenodd" width="2" height="34"/>
	<rect x="239.999" y="306" fill-rule="evenodd" clip-rule="evenodd" width="2" height="34"/>
	<rect x="245.999" y="306" fill-rule="evenodd" clip-rule="evenodd" width="2" height="34"/>
	<rect x="251.999" y="306" fill-rule="evenodd" clip-rule="evenodd" width="2" height="34"/>
	<rect x="257.999" y="306" fill-rule="evenodd" clip-rule="evenodd" width="2" height="34"/>
	<rect x="260" y="306" fill-rule="evenodd" clip-rule="evenodd" fill="#A0A0A0" width="10" height="34"/>
	<rect x="272" y="306" fill-rule="evenodd" clip-rule="evenodd" fill="#A0A0A0" width="10" height="34"/>
	<rect x="284" y="306" fill-rule="evenodd" clip-rule="evenodd" width="2" height="34"/>
	<rect x="288" y="306" fill-rule="evenodd" clip-rule="evenodd" width="2" height="34"/>
	<rect x="292" y="306" fill-rule="evenodd" clip-rule="evenodd" width="2" height="34"/>
	<rect x="296" y="306" fill-rule="evenodd" clip-rule="evenodd" width="2" height="34"/>
	<rect x="300" y="306" fill-rule="evenodd" clip-rule="evenodd" width="2" height="34"/>
	<rect x="304" y="306" fill-rule="evenodd" clip-rule="evenodd" width="2" height="34"/>
	<rect x="308" y="306" fill-rule="evenodd" clip-rule="evenodd" width="2" height="34"/>
	<rect x="312" y="306" fill-rule="evenodd" clip-rule="evenodd" width="2" height="34"/>
	<rect x="316" y="306" fill-rule="evenodd" clip-rule="evenodd" width="2" height="34"/>
	<rect x="320" y="306" fill-rule="evenodd" clip-rule="evenodd" width="2" height="34"/>
	<rect x="324" y="306" fill-rule="evenodd" clip-rule="evenodd" width="2" height="34"/>
	<rect x="328" y="306" fill-rule="evenodd" clip-rule="evenodd" width="2" height="34"/>
	<rect x="332" y="306" fill-rule="evenodd" clip-rule="evenodd" width="2" height="34"/>
	<rect x="336" y="306" fill-rule="evenodd" clip-rule="evenodd" width="2" height="34"/>
	<rect x="340" y="306" fill-rule="evenodd" clip-rule="evenodd" width="2" height="34"/>
	<rect x="342" y="306" fill-rule="evenodd" clip-rule="evenodd" fill="#A0A0A0" width="20" height="34"/>
	<rect x="362" y="306" fill-rule="evenodd" clip-rule="evenodd" fill="#FF9645" width="102" height="34"/>
	<rect x="464" y="306" fill-rule="evenodd" clip-rule="evenodd" fill="#A0A0A0" width="10" height="34"/>
</g>
<polygon fill-rule="evenodd" clip-rule="evenodd" points="277.001,374 277.001,340 265.001,340 "/>
</svg>
