<?xml version="1.0" encoding="utf-8"?>
<!-- Generator: Adobe Illustrator 25.4.1, SVG Export Plug-In . SVG Version: 6.00 Build 0)  -->
<svg version="1.1" id="Ebene_1" xmlns="http://www.w3.org/2000/svg" xmlns:xlink="http://www.w3.org/1999/xlink" x="0px" y="0px"
	 viewBox="0 0 1347.6 1428.5" style="enable-background:new 0 0 1347.6 1428.5;" xml:space="preserve">
<style type="text/css">
	.st0{fill:url(#SVGID_1_);}
	.st1{fill:url(#SVGID_00000095311068658260827420000008339702417418159234_);}
	.st2{clip-path:url(#SVGID_00000039855141944659542970000010810749551795490439_);}
	.st3{fill:url(#SVGID_00000118389032437922280670000018335027470524328339_);}
	.st4{fill:url(#SVGID_00000106848608463481898360000005419091684669645207_);}
	.st5{fill:url(#SVGID_00000163794495436787841910000004957852774872863934_);}
	.st6{fill:url(#SVGID_00000075876383802065654200000012000188270708522914_);}
	.st7{fill:url(#SVGID_00000128451311761832105710000012737860253206393482_);}
	.st8{fill:url(#SVGID_00000162311401680734933290000004581170793888459449_);}
	.st9{fill:url(#SVGID_00000151541217040240503530000001274847544646174142_);}
	.st10{fill:url(#SVGID_00000152237348967912157680000012065374751024927421_);}
	.st11{fill:url(#SVGID_00000036248055009225786600000011311430181693837751_);}
	.st12{fill:url(#SVGID_00000181790619272677311690000008531672090422820242_);}
	.st13{fill:url(#SVGID_00000039837499297957273050000018131855469224136342_);}
	.st14{fill:url(#SVGID_00000074412435498119268490000004962502103440653467_);}
	.st15{fill:url(#SVGID_00000126295219697559040360000008837177541858943668_);}
	.st16{fill:url(#SVGID_00000075157378390750559510000014039500685668815529_);}
	.st17{fill:url(#SVGID_00000031889153942729932310000011634594763433611675_);}
	.st18{fill:url(#SVGID_00000027600426359347968900000011918289493978474410_);}
	.st19{fill:url(#SVGID_00000083076431769846185350000007166481620010775224_);}
	.st20{fill:url(#SVGID_00000024694088097589886100000016313234814827141015_);}
	.st21{fill:url(#SVGID_00000006666818338172294660000014370275868691106196_);}
	.st22{fill:url(#SVGID_00000146469318593063102900000007845463234481729155_);}
	.st23{fill:url(#SVGID_00000122682064819254299690000006313593083321588108_);}
	.st24{fill:url(#SVGID_00000064352829671241661800000014660527429652821646_);}
	.st25{fill:url(#SVGID_00000086651836813096403320000016654036116286224258_);}
	.st26{fill:none;stroke:#F9C80E;stroke-width:6.78;stroke-miterlimit:10;}
	.st27{fill:#241734;}
	.st28{fill:#1BA5A1;}
	.st29{fill:#2DE2E6;}
	.st30{fill:#188C86;}
	.st31{fill:#2E2157;}
	.st32{fill:#B20F45;}
	.st33{fill:#FD1D53;}
	.st34{fill:#FFFFFF;}
	.st35{fill:#9E1B25;}
	.st36{fill:#F2F2F2;}
	.st37{fill:url(#SVGID_00000096737354861026541000000000152454750833991099_);}
</style>
<g id="triangle">
	
		<linearGradient id="SVGID_1_" gradientUnits="userSpaceOnUse" x1="626.9248" y1="78.8521" x2="626.9248" y2="1107.9521" gradientTransform="matrix(1 0 0 -1 0 1202.5043)">
		<stop  offset="0" style="stop-color:#BC882F"/>
		<stop  offset="1" style="stop-color:#2E2157"/>
	</linearGradient>
	<polygon class="st0" points="81.4,1123.7 1172.4,1008.5 344.6,94.6 	"/>
	
		<linearGradient id="SVGID_00000060727797630472830890000008275098737557252791_" gradientUnits="userSpaceOnUse" x1="1252.8248" y1="611.1022" x2="29.7248" y2="611.1022" gradientTransform="matrix(1 0 0 -1 0 1202.5043)">
		<stop  offset="0" style="stop-color:#F9C80E"/>
		<stop  offset="0.17" style="stop-color:#F9983E"/>
		<stop  offset="0.37" style="stop-color:#F86471"/>
		<stop  offset="0.57" style="stop-color:#F83C9A"/>
		<stop  offset="0.74" style="stop-color:#F71EB7"/>
		<stop  offset="0.89" style="stop-color:#F70CC9"/>
		<stop  offset="1" style="stop-color:#F706CF"/>
	</linearGradient>
	<path style="fill:url(#SVGID_00000060727797630472830890000008275098737557252791_);" d="M344.6,94.6l827.8,913.9l-1091,115.2
		L344.6,94.6 M324.8,14.6l-18,70.3L43.6,1114l-13.9,54.3l55.8-5.9l1091-115.1l76.3-8.1l-51.5-56.9L373.5,68.4L324.8,14.6L324.8,14.6
		z"/>
	<g>
		<defs>
			<polygon id="SVGID_00000033347330662694019960000016755499030530597545_" points="81.4,1123.7 1172.4,1008.5 344.6,94.6 			"/>
		</defs>
		<clipPath id="SVGID_00000045617040588105038100000006281914799397078171_">
			<use xlink:href="#SVGID_00000033347330662694019960000016755499030530597545_"  style="overflow:visible;"/>
		</clipPath>
		<g style="clip-path:url(#SVGID_00000045617040588105038100000006281914799397078171_);">
			
				<linearGradient id="SVGID_00000153667755102807336440000004051800541073027222_" gradientUnits="userSpaceOnUse" x1="780.9433" y1="273.6837" x2="796.7934" y2="384.8437" gradientTransform="matrix(0.9 -7.000000e-02 -8.000000e-02 -1 82.2426 1278.166)">
				<stop  offset="0" style="stop-color:#1A1A1A"/>
				<stop  offset="1" style="stop-color:#2E2157"/>
			</linearGradient>
			<path style="fill:url(#SVGID_00000153667755102807336440000004051800541073027222_);" d="M764.8,942.8
				c-0.2-0.6-5.4-15.2-8.6-40.1s-1.8-70.9-1.7-72.8l14.4,0.8c0,0.5-1.5,46.8,1.5,70s7.7,36.2,7.8,36.3L764.8,942.8z"/>
			
				<linearGradient id="SVGID_00000160885683871035638690000011883283798193047690_" gradientUnits="userSpaceOnUse" x1="733.5836" y1="309.7286" x2="743.4518" y2="378.9758" gradientTransform="matrix(0.982 0.1891 0.1891 -0.982 20.3294 997.9207)">
				<stop  offset="0" style="stop-color:#1A1A1A"/>
				<stop  offset="1" style="stop-color:#2E2157"/>
			</linearGradient>
			<path style="fill:url(#SVGID_00000160885683871035638690000011883283798193047690_);" d="M758.3,818.7c0,0,12.3-23.6,39.2-41.4
				c25.1-16.5,65,4.2,65,4.2c-33.5-7.5-91.4,39.7-91.4,39.7L758.3,818.7z"/>
			
				<linearGradient id="SVGID_00000113353454247558606730000011800626355137617552_" gradientUnits="userSpaceOnUse" x1="1271.5269" y1="370.1052" x2="1280.7468" y2="434.7852" gradientTransform="matrix(-1 -4.000000e-02 4.000000e-02 -1 1984.2196 1246.7352)">
				<stop  offset="0" style="stop-color:#1A1A1A"/>
				<stop  offset="1" style="stop-color:#2E2157"/>
			</linearGradient>
			<path style="fill:url(#SVGID_00000113353454247558606730000011800626355137617552_);" d="M752.6,819.3c0,0-38.6-49.8-67.7-50
				c0,0,36.8-9.4,54.3,8.9s25.1,47.8,25.1,47.8L752.6,819.3z"/>
			
				<linearGradient id="SVGID_00000105402012593260064100000014393165053679179424_" gradientUnits="userSpaceOnUse" x1="687.5249" y1="370.7521" x2="687.5249" y2="402.221" gradientTransform="matrix(1 0 0 -1 0 1202.5043)">
				<stop  offset="0" style="stop-color:#1A1A1A"/>
				<stop  offset="1" style="stop-color:#2E2157"/>
			</linearGradient>
			<path style="fill:url(#SVGID_00000105402012593260064100000014393165053679179424_);" d="M763.8,828.3c0,0-24.3,4.7-69.6-1.1
				s-83.6,4.6-83.6,4.6c54.6-61.5,149.8-13.9,149.8-13.9l4,11.3"/>
			
				<linearGradient id="SVGID_00000114070216241545869880000016156624987891057563_" gradientUnits="userSpaceOnUse" x1="1109.9647" y1="369.7521" x2="1109.9647" y2="401.221" gradientTransform="matrix(-1 0 0 -1 1944.7395 1202.5043)">
				<stop  offset="0" style="stop-color:#1A1A1A"/>
				<stop  offset="1" style="stop-color:#2E2157"/>
			</linearGradient>
			<path style="fill:url(#SVGID_00000114070216241545869880000016156624987891057563_);" d="M763.4,829.3c0,0,17.4,4.7,62.7-1.1
				s83.5,4.6,83.5,4.6c-54.5-61.5-149.7-13.9-149.7-13.9L763.4,829.3"/>
			
				<linearGradient id="SVGID_00000178195246630951961390000012515408756037172129_" gradientUnits="userSpaceOnUse" x1="388.3388" y1="288.5575" x2="388.3388" y2="339.4375" gradientTransform="matrix(-0.99 -0.14 0.14 -0.99 1160.244 1213.6653)">
				<stop  offset="0" style="stop-color:#1A1A1A"/>
				<stop  offset="1" style="stop-color:#2E2157"/>
			</linearGradient>
			<path style="fill:url(#SVGID_00000178195246630951961390000012515408756037172129_);" d="M759.1,824.1c0,0,82.6-29.1,119.9,58.3
				c0,0-31.9-18.1-60.1-27.3c-43.4-14.2-55.7-20.1-55.7-20.1L759.1,824.1"/>
			
				<linearGradient id="SVGID_00000093864535652924975150000000010977163230719653_" gradientUnits="userSpaceOnUse" x1="-14.768" y1="352.3482" x2="-14.768" y2="403.1885" gradientTransform="matrix(0.969 -0.247 -0.247 -0.969 813.7698 1216.6249)">
				<stop  offset="0" style="stop-color:#1A1A1A"/>
				<stop  offset="1" style="stop-color:#2E2157"/>
			</linearGradient>
			<path style="fill:url(#SVGID_00000093864535652924975150000000010977163230719653_);" d="M763.2,835c0,0-13.8,7.6-55.4,26.3
				c-27,12.1-56.9,33.6-56.9,33.6C678.7,804,764,824,764,824L763.2,835z"/>
			
				<linearGradient id="SVGID_00000158024371884267060270000007224695478968234681_" gradientUnits="userSpaceOnUse" x1="458.7596" y1="384.1887" x2="481.4795" y2="543.5887" gradientTransform="matrix(0.87 -0.24 -0.26 -0.96 94.0688 1379.3601)">
				<stop  offset="0" style="stop-color:#1A1A1A"/>
				<stop  offset="1" style="stop-color:#2E2157"/>
			</linearGradient>
			<path style="fill:url(#SVGID_00000158024371884267060270000007224695478968234681_);" d="M396.5,907.9
				c-0.5-0.8-11.7-20-22.9-54.2s-21.4-99.3-21.8-102.1l20.5-2.7c0.1,0.7,10.5,66.3,20.9,98.2s20.5,48.9,20.6,49.1L396.5,907.9z"/>
			
				<linearGradient id="SVGID_00000057130543647974309970000007098333517122790583_" gradientUnits="userSpaceOnUse" x1="425.9192" y1="384.5465" x2="440.0791" y2="483.8564" gradientTransform="matrix(1 0 0 -1 -9.7 1124.4742)">
				<stop  offset="0" style="stop-color:#1A1A1A"/>
				<stop  offset="1" style="stop-color:#2E2157"/>
			</linearGradient>
			<path style="fill:url(#SVGID_00000057130543647974309970000007098333517122790583_);" d="M354.2,734.8c0,0,11-36.6,44.2-68.8
				c30.9-29.9,92.7-11.4,92.7-11.4c-49.3-1.7-118.3,80.4-118.3,80.4L354.2,734.8z"/>
			
				<linearGradient id="SVGID_00000055676090404225623580000000708956804097490820_" gradientUnits="userSpaceOnUse" x1="1594.1296" y1="490.3584" x2="1607.3496" y2="583.1083" gradientTransform="matrix(-0.99 0.15 -0.15 -0.99 1966.3073 1005.1581)">
				<stop  offset="0" style="stop-color:#1A1A1A"/>
				<stop  offset="1" style="stop-color:#2E2157"/>
			</linearGradient>
			<path style="fill:url(#SVGID_00000055676090404225623580000000708956804097490820_);" d="M346.3,737.2c0,0-67.7-59.9-108.7-52.3
				c0,0,49.3-23.2,78.8-2c31.7,22.7,48.2,60.5,48.2,60.5L346.3,737.2z"/>
			
				<linearGradient id="SVGID_00000157298285940813825210000006679935585104259513_" gradientUnits="userSpaceOnUse" x1="352.756" y1="501.1064" x2="352.756" y2="546.2465" gradientTransform="matrix(0.9826 -0.1857 -0.1857 -0.9826 4.5726 1330.7407)">
				<stop  offset="0" style="stop-color:#1A1A1A"/>
				<stop  offset="1" style="stop-color:#2E2157"/>
			</linearGradient>
			<path style="fill:url(#SVGID_00000157298285940813825210000006679935585104259513_);" d="M364.6,746.9c0,0-33.1,13.1-98.5,17
				s-116.4,28.8-116.4,28.8c60.4-101.2,207.2-59.6,207.2-59.6l8.7,14.9"/>
			
				<linearGradient id="SVGID_00000131356081885264446360000001480770634746073518_" gradientUnits="userSpaceOnUse" x1="1386.9185" y1="501.7001" x2="1386.9185" y2="546.85" gradientTransform="matrix(-0.98 0.19 -0.19 -0.98 1921.0269 966.4246)">
				<stop  offset="0" style="stop-color:#1A1A1A"/>
				<stop  offset="1" style="stop-color:#2E2157"/>
			</linearGradient>
			<path style="fill:url(#SVGID_00000131356081885264446360000001480770634746073518_);" d="M364.2,748.4c0,0,25.8,1.9,88-18.4
				s118.9-15.8,118.9-15.8c-93.2-72-214.6,20.4-214.6,20.4L364.2,748.4"/>
			
				<linearGradient id="SVGID_00000131340805244838934600000003406172701465731499_" gradientUnits="userSpaceOnUse" x1="681.5321" y1="360.7778" x2="681.5321" y2="433.7377" gradientTransform="matrix(-1 5.000000e-02 -5.000000e-02 -1 1150.2822 1127.6331)">
				<stop  offset="0" style="stop-color:#1A1A1A"/>
				<stop  offset="1" style="stop-color:#2E2157"/>
			</linearGradient>
			<path style="fill:url(#SVGID_00000131340805244838934600000003406172701465731499_);" d="M356.7,742.2c0,0,108.7-63,184.6,50.1
				c0,0-49.9-17-92-22.4c-64.9-8.4-83.9-13.4-83.9-13.4L356.7,742.2"/>
			
				<linearGradient id="SVGID_00000128478668898596978500000006416235554990852003_" gradientUnits="userSpaceOnUse" x1="-301.511" y1="538.7318" x2="-301.511" y2="611.6677" gradientTransform="matrix(0.9063 -0.4226 -0.4226 -0.9063 806.7817 1193.1064)">
				<stop  offset="0" style="stop-color:#1A1A1A"/>
				<stop  offset="1" style="stop-color:#2E2157"/>
			</linearGradient>
			<path style="fill:url(#SVGID_00000128478668898596978500000006416235554990852003_);" d="M365.4,756.5c0,0-17.3,14.3-71,51.8
				c-34.8,24.3-71.1,62.5-71.1,62.5c14.8-135.4,140.3-130,140.3-130L365.4,756.5z"/>
			
				<linearGradient id="SVGID_00000078750372247846400600000008347085525307711909_" gradientUnits="userSpaceOnUse" x1="1040.0432" y1="350.6442" x2="1099.3833" y2="766.9341" gradientTransform="matrix(-0.86 0.26 -0.29 -0.96 1575.4591 993.1577)">
				<stop  offset="0" style="stop-color:#1A1A1A"/>
				<stop  offset="1" style="stop-color:#2E2157"/>
			</linearGradient>
			<path style="fill:url(#SVGID_00000078750372247846400600000008347085525307711909_);" d="M549.1,940c0-1-41.2-247.4-55.5-314.5
				c-12.2-56.9-37.7-102.8-38.9-105.6l-20.3,9.4c0.3,0.6,30.6,65.9,37.5,101.4c12.7,65.4,54.7,308.4,54.7,308.7L549.1,940z"/>
			
				<linearGradient id="SVGID_00000055701961616861410370000002055003029809717646_" gradientUnits="userSpaceOnUse" x1="878.1483" y1="748.4314" x2="893.3983" y2="855.4314" gradientTransform="matrix(-0.84 0.54 -0.54 -0.84 1537.8318 707.9405)">
				<stop  offset="0" style="stop-color:#1A1A1A"/>
				<stop  offset="1" style="stop-color:#2E2157"/>
			</linearGradient>
			<path style="fill:url(#SVGID_00000055701961616861410370000002055003029809717646_);" d="M442.8,506c0,0-31.1-27-79.8-37.2
				c-45.4-9.5-91,42.9-91,42.9c43.9-29.9,153.9,5.2,153.9,5.2L442.8,506z"/>
			
				<linearGradient id="SVGID_00000139258592446329091850000017455537378169857972_" gradientUnits="userSpaceOnUse" x1="1106.3815" y1="782.6882" x2="1120.6288" y2="882.659" gradientTransform="matrix(0.9164 -0.4003 -0.4003 -0.9164 -207.5627 1665.832)">
				<stop  offset="0" style="stop-color:#1A1A1A"/>
				<stop  offset="1" style="stop-color:#2E2157"/>
			</linearGradient>
			<path style="fill:url(#SVGID_00000139258592446329091850000017455537378169857972_);" d="M451.4,503.6c0,0,27.3-93.5,68.9-110.2
				c0,0-58.2,7.3-72.9,43.5c-15.8,39-9.1,82.9-9.1,82.9L451.4,503.6z"/>
			
				<linearGradient id="SVGID_00000138545531896973439880000003522728677574285706_" gradientUnits="userSpaceOnUse" x1="848.7883" y1="775.0471" x2="848.7883" y2="823.6771" gradientTransform="matrix(-0.93 0.37 -0.37 -0.93 1629.5612 894.9374)">
				<stop  offset="0" style="stop-color:#1A1A1A"/>
				<stop  offset="1" style="stop-color:#2E2157"/>
			</linearGradient>
			<path style="fill:url(#SVGID_00000138545531896973439880000003522728677574285706_);" d="M440.3,523c0,0,37.7-7.2,99.4-41.2
				s122.8-40.7,122.8-40.7C549.2,383.7,439.4,506,439.4,506l0.6,18.6"/>
			
				<linearGradient id="SVGID_00000126305814313370339410000001850283222198356917_" gradientUnits="userSpaceOnUse" x1="868.5499" y1="773.4044" x2="868.5499" y2="822.0723" gradientTransform="matrix(0.9304 -0.3665 -0.3665 -0.9304 -183.4214 1608.1643)">
				<stop  offset="0" style="stop-color:#1A1A1A"/>
				<stop  offset="1" style="stop-color:#2E2157"/>
			</linearGradient>
			<path style="fill:url(#SVGID_00000126305814313370339410000001850283222198356917_);" d="M441.5,524.1c0,0-22.4,16.6-90.7,33.9
				s-117.4,54-117.4,54c43.5-119.3,207.2-104.8,207.2-104.8L441.5,524.1"/>
			
				<linearGradient id="SVGID_00000109714610073357671610000008269576753272206270_" gradientUnits="userSpaceOnUse" x1="212.3776" y1="698.4536" x2="212.3776" y2="777.0436" gradientTransform="matrix(0.8695 -0.4939 -0.4939 -0.8695 551.2761 1330.0491)">
				<stop  offset="0" style="stop-color:#1A1A1A"/>
				<stop  offset="1" style="stop-color:#2E2157"/>
			</linearGradient>
			<path style="fill:url(#SVGID_00000109714610073357671610000008269576753272206270_);" d="M444.8,514.1c0,0-135.3,5.2-139.4,151.9
				c0,0,35.7-44.2,71-73.4c54.3-44.9,68.7-60.4,68.7-60.4L444.8,514.1"/>
			
				<linearGradient id="SVGID_00000061453083330105259250000003379909941386906788_" gradientUnits="userSpaceOnUse" x1="251.0508" y1="677.6011" x2="251.0508" y2="756.2011" gradientTransform="matrix(-0.99 0.13 -0.13 -0.99 879.7421 1205.0286)">
				<stop  offset="0" style="stop-color:#1A1A1A"/>
				<stop  offset="1" style="stop-color:#2E2157"/>
			</linearGradient>
			<path style="fill:url(#SVGID_00000061453083330105259250000003379909941386906788_);" d="M445.1,532.2c0,0,24,3,94.4,6.3
				c45.8,2.1,100.8,16.1,100.8,16.1c-91.4-114.9-202.6-37.7-202.6-37.7L445.1,532.2z"/>
			
				<linearGradient id="SVGID_00000077324435101446053680000002006085734726944681_" gradientUnits="userSpaceOnUse" x1="604.5051" y1="-76.0755" x2="678.8353" y2="445.4059" gradientTransform="matrix(1 0 0 -1 0 1202.5043)">
				<stop  offset="0" style="stop-color:#1A1A1A"/>
				<stop  offset="1" style="stop-color:#2E2157"/>
			</linearGradient>
			<path style="fill:url(#SVGID_00000077324435101446053680000002006085734726944681_);" d="M27.9,949.4c0,0,280.2-102.9,400.1-74.2
				s376.4,63.8,469.7,32.5s188.4-92.5,188.4-92.5l179.8,248.9L-13.8,1190.5L27.9,949.4z"/>
			
				<linearGradient id="SVGID_00000130614254311422257300000003444570774327114152_" gradientUnits="userSpaceOnUse" x1="441.0256" y1="268.2936" x2="392.5755" y2="355.5036" gradientTransform="matrix(1 0 0 -1 0 1202.5043)">
				<stop  offset="0" style="stop-color:#2DE2E6"/>
				<stop  offset="1" style="stop-color:#C6F7F8"/>
			</linearGradient>
			<path style="fill:url(#SVGID_00000130614254311422257300000003444570774327114152_);" d="M50.4,1124.7c-2.4,0-4.7-0.9-6.4-2.6
				c-3.5-3.5-3.5-9.1,0-12.6c0,0,0.1-0.1,0.1-0.1c5.6-5.7,139-138.6,186.3-167.6c69.6-42.6,120.5-53.3,169.8-63.7
				c43.2-9.1,87.8-18.5,146-50C600.1,799,656.9,750,695.2,714c41.6-39.2,70.7-72,71-72.3c3.2-3.8,8.9-4.3,12.7-1.2
				c3.8,3.2,4.3,8.9,1.2,12.7c-0.1,0.2-0.3,0.3-0.4,0.5C774.9,659.1,661,786.6,554.7,844c-60.4,32.6-106.4,42.3-150.8,51.7
				c-50,10.5-97.2,20.5-164.1,61.5c-45.5,27.9-181.7,163.5-183,164.9C55.1,1123.7,52.8,1124.6,50.4,1124.7z"/>
		</g>
	</g>
	
		<image style="overflow:visible;opacity:0.87;enable-background:new    ;" width="1320" height="1239" xlink:href="6C23D00EB1764A47.png"  transform="matrix(1 0 0 1 27.6248 189.4521)">
	</image>
	<polygon class="st26" points="201.5,1396 1312.6,818.9 58.9,222.4 	"/>
</g>
<g id="shadow-hackolaus">
	
		<image style="overflow:visible;opacity:0.75;enable-background:new    ;" width="702" height="562" xlink:href="6C23D00EB1764A45.png"  transform="matrix(1 0 0 1 317.6248 278.4521)">
	</image>
	<path class="st27" d="M657.9,384.2l-7.1,5.3c-7.7,5.6-15.2,11.4-21.7,18.4c-4.1,4.5-7.5,9.6-7.2,15.9c0.3,7.9,5.7,13.4,13,15.5
		c11.3,3.2,22.9,4.5,34.5,6l4.8,0.6l-26.9,44.5c-1,1.6-2,3.2-2.9,4.9h-0.1c0,0-42.4,69.6-78.5,102.4c-42.4,38.7-105.9,28.4-125,47.9
		l0,0c0.1-0.3,0.2-0.6,0.4-0.9c-5.1-0.8-10.7,0.8-13.5,5.3c-5.6,8.7-6,18.7-0.7,27.6c5.3,8.9,12.3,12.2,20.5,15.2
		c16.6,5.8,33.5,10.4,50.8,13.6c33.9,6.4,68.5,7.9,102.8,6.1c28.3-1.4,56.4-5.1,84.1-11.1c4.1,5.4,9.2,10,15.1,13.4
		c30.1,17.6,68.7,20.2,112.3,6.5v6.3c0,0,11.3,12.2,30,5.3c16-5.9,30.7-14.9,43.3-26.4c14.2-12.6,15.7-25.2,15.7-25.2l0.5-7.1
		c3.9-2.8,7.9-5.8,11.9-8.9L657.9,384.2z"/>
</g>
<g id="maus">
	<path class="st28" d="M704.9,579.9c0,0-63.5,100.5-4.6,135s150.2,11.7,248.4-79.1s130.4-126.8,76.9-162.4
		c-43.5-28.9-82-45.9-120.3-46.4S732,539,704.9,579.9z"/>
	<path class="st29" d="M991.9,446.6c16.2,8.6,58,28.2,52.7,43.9c-3.2,9.4-81.9,27-111.5,43c-78.8,43-127.7,132.7-168.1,132.9
		s-74.5-18.6-74.9-40.3s47-129.7,107.2-167.5c49.6-31.3,80.6-32.9,108-31.6S975.5,438,991.9,446.6z"/>
	<path class="st28" d="M831.2,510.5c-0.7,0-1.4-0.3-2-0.8c-1.2-1.1-1.3-3-0.2-4.2c23.3-25.9,62.4-38.4,91-44.2
		c18.7-3.9,37.7-6.1,56.8-6.7l0,0c1.7,0,3,1.3,3,3c0.1,1.6-1.2,2.9-2.8,3c0,0-0.1,0-0.1,0c-1.1,0-100.7,1.5-143.4,48.9
		C832.9,510.1,832.1,510.4,831.2,510.5z"/>
	<path class="st30" d="M899.9,469.2c3.1,10.8,32.9,3,49-0.1s25.3-5.9,17.2-12.7s-19.5-9.2-34.9-4.1S897.3,460.1,899.9,469.2z"/>
</g>
<g id="hackolaus">
	<path class="st31" d="M819,623.7c0,0,39-33.8,59.8-23c0,0-9.8,34-29.2,38.1S819,623.7,819,623.7z"/>
	<circle class="st32" cx="916.6" cy="552" r="16.5"/>
	<path class="st32" d="M875.2,580.3l-1-5.4c-3.1-17.1-18.6-29.1-35.9-27.8l-95.4,7.4c-5.1,0.3-9.1,4.4-9.3,9.5l0,0
		c-1.4,30,21.7,55.5,51.8,56.9c4.1,0.2,8.3-0.1,12.3-0.8l29.6-5.4l-5.2,44.4c-1.7,10.4,5.3,20.2,15.8,22
		c10.4,1.7,20.2-5.3,21.9-15.8l15.4-74.9c0.2-1,0.3-2,0.3-3C875.8,585,875.7,582.6,875.2,580.3z"/>
	
		<image style="overflow:visible;opacity:0.87;enable-background:new    ;" width="696" height="541" xlink:href="6C23D00EB1764A4B.png"  transform="matrix(1 0 0 1 319.6248 260.4521)">
	</image>
	<path class="st33" d="M906.8,522.5l-78.5-116.3c0,0-38.2-36.3-66.5-39.6c-26.7-3.1-53,8.7-68.3,30.8h-0.1c-1.7,2.5-3.2,5-4.6,7.6
		l-51.5,85.3c-1,1.6-2,3.2-2.9,4.9h-0.1c0,0-42.4,69.6-78.5,102.4c-49.1,44.7-126.3,23.9-130.5,59.6s102.3,41,204.9,38.3
		c112.5-2.9,183.6-90.4,183.5-112c0-6.9,8.9-23.8,8.9-23.8l-1-53.5l68.1,45.6c0,0,15.5-0.6,18.6-8.5
		C913.9,529.4,906.8,522.5,906.8,522.5z"/>
	<path class="st27" d="M902.9,660.2L902.9,660.2c-0.2-2.4-1-4.6-2.5-6.5c-5.1-6.5-16.7-6.6-30.2-1.6l8.6-51.3c0,0-12.4,28.9-33,33.3
		c-14.3,3-26.8-10.3-26.8-10.3l-5.8,82.5h0.1c-0.9,3-1.1,6.1-0.7,9.2v12.3c0,0,11.3,12.2,30,5.3c16-5.9,30.7-14.9,43.3-26.4
		c14.2-12.6,15.7-25.2,15.7-25.2l1-14.5C903.1,664.7,903.2,662.4,902.9,660.2z"/>
	<path class="st34" d="M844.2,534.2c-5.9-4.5-15.3-3.5-19.6,2.7c-18.9,27.1-37.7,54.3-56.7,81.4c-8,11.5-16.2,22.9-27.4,31.5
		s-21.1,12.8-33.7,17.1c-24.9,8.5-54.7,12.8-82,15.8c-30.3,3.2-60.7,3.8-91.1,0.6c-17.2-1.6-34.3-4.6-51.1-8.8c-7.6-2-15.5-4.4-23-7
		l-6.4-2.5c-1-0.1-1.9-0.4-2.8-0.9c-2.8-1.7-6.3-3.1-8.6-6.1s-2.5-8.1-1-12.3c0.1-0.3,0.2-0.6,0.4-0.9c-5.1-0.8-10.7,0.8-13.5,5.3
		c-5.6,8.7-6,18.7-0.7,27.6s12.3,12.2,20.5,15.2c16.6,5.8,33.5,10.4,50.8,13.6c33.9,6.4,68.5,7.9,102.8,6.1c32.3-1.7,65-6,96.4-14
		s59.7-21.4,80.5-46.9c12.2-15,26.7-31.5,37.7-47.3l31.2-50.6C851.2,547.6,850.4,538.8,844.2,534.2z"/>
	<path class="st34" d="M909,514.9c-7.9,1.1-12.1,7-12.5,14.4c-0.1,0.2-0.1,0.4-0.1,0.6c-0.2,0.9-0.4,1.7-0.5,2.6h-0.1
		c-0.4,0.8-0.8,1.7-1.1,2.6c-0.5,0.5-1,1.1-1.4,1.7l-0.3,0.3l0,0l-2.3,1.7l-2.2,1.9c-5.6,2.5-9,8.2-8.5,14.3
		c0.7,7.6,7.5,13.3,15.1,12.6c3.4-0.3,6.6-1.9,9-4.5c1.1-0.4,2.1-1,3.1-1.6c11.5-7.8,17-20.5,17.1-34.1
		C924.4,520.1,915.9,513.9,909,514.9z"/>
	
		<image style="overflow:visible;opacity:0.87;enable-background:new    ;" width="403" height="322" xlink:href="6C23D00EB1764A4D.png"  transform="matrix(1 0 0 1 534.6248 222.4521)">
	</image>
	<path class="st35" d="M825.6,348.1c0,0-19.8,1.2-28.1,8.2c-11.6-4.3-25.8-7-39.4-8.7c-0.8-8.2-6.3-18.3-6.3-18.3
		c-3.5,0.3-7,0.7-10.5,1.4c-2.3-1.4-4.8-2.3-7.5-2.7c-10.1-1.1-19.2,6.1-20.4,16.2c-0.3,2.7,0,5.4,0.9,7.9
		c-6.1,5.1-12.9,13.3-22.5,26.5s-58,32.2-51.1,40c9.5,10.5,74.5,22.1,99.7,20.6c31.9-2,78.9-34.6,81.5-56.7c0-0.8,0.1-1.5,0.1-2.3
		c4.9-3,9.8-7.1,10-11.4C832.4,360.4,825.6,348.1,825.6,348.1z"/>
	<circle class="st36" cx="639.8" cy="291.9" r="11"/>
	<path class="st34" d="M831.1,361.9c-6.1,5.1-17.5,7.3-20.8,14.1c-6.3,12.7-15.4,23.8-26.6,32.5c-11.4,9.1-25.3,14.4-39.8,15.2
		c-14.9,1.1-32.1-1.4-47.8-3.3l-27.3-3.4l-6.9-0.9l6.3-4.6c7.6-5.6,29.6-26.4,35.1-32.2s19.1-25.9,21.6-27.9
		c5.8-4.8,5.2-12.6,2.3-19.7c-4.5-10.7-13.8-7.1-19.7-2.3s-35.8,41.5-38.1,44.3c-4.7,5.6-11.7,10.8-18.6,15.8s-15.2,11.4-21.7,18.4
		c-4.1,4.5-7.5,9.6-7.2,15.9c0.3,7.9,5.7,13.4,13,15.5c11.3,3.2,22.9,4.5,34.5,6c20.9,2.6,41.9,6.1,63,6.4s42.6-3.8,61.5-16.1
		s32.8-29.4,42.4-49.1C839.6,379.8,840.9,353.9,831.1,361.9z"/>
	
		<image style="overflow:visible;opacity:0.75;enable-background:new    ;" width="378" height="320" xlink:href="6C23D00EB1764A4F.png"  transform="matrix(1 0 0 1 572.6248 196.4521)">
	</image>
	<path class="st27" d="M845.4,347.5l-6.7-40.9l-111.6-4.5l0,0c0,0-27.2,30-45.9,40.1l45.7-10.4l0,0c-3.4,2.6-39.8,30.9-48.8,43.3
		c0,0,35.3-3.6,51.4-10.7c10.9-4.8-22.5,27.4-26,32.9c0,0,41-11.4,68-30.6l0.9,0.6c-5.9,7.3-33.7,35.9-29.9,43.8
		c0,0,76.7-30.4,88.6-49.3h-0.2c3-2.8,5.6-6,7.7-9.5C841,350.8,843.3,349.2,845.4,347.5z"/>
	
		<linearGradient id="SVGID_00000062177714698564968470000012426264000522474125_" gradientUnits="userSpaceOnUse" x1="678.1246" y1="890.1722" x2="867.1321" y2="890.1722" gradientTransform="matrix(1 0 0 -1 0 1202.5043)">
		<stop  offset="0" style="stop-color:#F706CF"/>
		<stop  offset="1" style="stop-color:#FB76E5"/>
	</linearGradient>
	<path style="fill:url(#SVGID_00000062177714698564968470000012426264000522474125_);" d="M858.2,267.5
		c-0.4-30.2-25.2-54.4-55.5-53.9s-54.4,25.2-53.9,55.5c0,2.2,0.2,4.4,0.5,6.6c-10.5,5.8-18.4,15.3-22.2,26.6l0,0
		c0,0-27.2,30-45.9,40.1l45.7-10.4l0,0c-3.4,2.6-39.8,30.9-48.8,43.3c0,0,35.3-3.6,51.4-10.7c10.9-4.8-22.5,27.4-26,32.9
		c0,0,41-11.4,68-30.6l0.9,0.6c-5.9,7.3-33.7,35.9-29.9,43.8c0,0,76.7-30.4,88.6-49.3h-0.2c3-2.8,5.6-6,7.7-9.5
		c14.8-8.8,25.7-25.2,28-45C868.4,293.5,865.5,279.4,858.2,267.5z"/>
	<path class="st33" d="M738.7,286.2c0,0,47.6,6,78.7-8.4c32.8-15.2,30.9-47.7,30.9-47.7s-10.1-30.3-35.6-40.6s-55.4,2.1-71.7,18.5
		c-29.9,30-86.7,72.9-103.6,79.2l5.3,10.5c0,0,89.4-44,94.3-32.6C740,271.7,740.6,279.1,738.7,286.2z"/>
	<path class="st34" d="M859.8,229.1c0.4-7.5-5-14-12.4-15h-2.6c-0.8,0.5-1.5,1.3-2,2.1c-0.3,0.5-0.7,1-1.2,1.3
		c-2.3,5.2-9.6,16-9.7,17.1c-0.2,0.7-0.4,1.4-0.5,2.1c-0.6,1.9-1.3,3.9-2.2,5.7l-0.9,1.9c-0.4,0.8-0.9,1.5-1.3,2.2s-2.7,3.7-4.1,5.4
		l-1.5,1.7c-0.8,0.8-1.6,1.6-2.5,2.3c-1.7,1.6-3.5,3-5.4,4.4l-3.2,2.1l-0.3,0.2l-0.6,0.3c-2.4,1.3-4.8,2.4-7.3,3.5
		c-8.9,3.6-18.5,5.4-28.6,6.3c-4.5,0.4-9.8,0.7-13.3,0.7s-11.2,0.3-15-1.3h-0.3c-1.7-1-3.6-1.6-5.5-1.9c-7.6-0.8-14.5,4.7-15.5,12.3
		c-0.7,6.2,2.8,12.1,8.5,14.5l2.2,1.2c12.5,5.1,28.3,3.5,41.5,2.4s26.6-3.8,38.8-9.1c23.3-10.2,42.6-31.4,45.3-57.3
		C860.4,232.4,860.2,230.7,859.8,229.1z"/>
	<circle class="st34" cx="639.7" cy="292.6" r="14"/>
</g>
</svg>
