<?xml version="1.0"?>
<!-- Generated by SVGo -->
<svg width="600" height="994"
     xmlns="http://www.w3.org/2000/svg"
     xmlns:xlink="http://www.w3.org/1999/xlink">
<rect x="0" y="0" width="600" height="994" style="fill:rgb(240,240,240)" />
<g style="font-size:15px;font-family:sans-serif">
<text x="110" y="25" style="text-anchor:middle;font-size:120%" >bufio.Reader</text>
<rect x="60" y="50" width="100" height="240" style="fill:steelblue" />
<text x="170" y="60" >0</text>
<text x="220" y="60" >Reader.buf []byte (size 24, align 8)</text>
<text x="50" y="290" style="text-anchor:end" >23</text>
<rect x="60" y="298" width="100" height="160" style="fill:steelblue" />
<text x="170" y="308" >24</text>
<text x="220" y="308" >Reader.rd io.Reader (size 16, align 8)</text>
<text x="50" y="458" style="text-anchor:end" >39</text>
<rect x="60" y="466" width="100" height="80" style="fill:steelblue" />
<text x="170" y="476" >40</text>
<text x="220" y="476" >Reader.r int (size 8, align 8)</text>
<text x="50" y="546" style="text-anchor:end" >47</text>
<rect x="60" y="554" width="100" height="80" style="fill:steelblue" />
<text x="170" y="564" >48</text>
<text x="220" y="564" >Reader.w int (size 8, align 8)</text>
<text x="50" y="634" style="text-anchor:end" >55</text>
<rect x="60" y="642" width="100" height="160" style="fill:steelblue" />
<text x="170" y="652" >56</text>
<text x="220" y="652" >Reader.err error (size 16, align 8)</text>
<text x="50" y="802" style="text-anchor:end" >71</text>
<rect x="60" y="810" width="100" height="80" style="fill:steelblue" />
<text x="170" y="820" >72</text>
<text x="220" y="820" >Reader.lastByte int (size 8, align 8)</text>
<text x="50" y="890" style="text-anchor:end" >79</text>
<rect x="60" y="898" width="100" height="80" style="fill:steelblue" />
<text x="170" y="908" >80</text>
<text x="220" y="908" >Reader.lastRuneSize int (size 8, align 8)</text>
<text x="50" y="978" style="text-anchor:end" >87</text>
</g>
</svg>
