<?xml version="1.0"?>
<!-- Generated by SVGo -->
<svg width="600" height="1618"
     xmlns="http://www.w3.org/2000/svg"
     xmlns:xlink="http://www.w3.org/1999/xlink">
<rect x="0" y="0" width="600" height="1618" style="fill:rgb(240,240,240)" />
<g style="font-size:15px;font-family:sans-serif">
<text x="110" y="25" style="text-anchor:middle;font-size:120%" >net/http.Response</text>
<rect x="60" y="50" width="100" height="160" style="fill:steelblue" />
<text x="170" y="60" >0</text>
<text x="220" y="60" >Response.Status string (size 16, align 8)</text>
<text x="50" y="210" style="text-anchor:end" >15</text>
<rect x="60" y="218" width="100" height="80" style="fill:steelblue" />
<text x="170" y="228" >16</text>
<text x="220" y="228" >Response.StatusCode int (size 8, align 8)</text>
<text x="50" y="298" style="text-anchor:end" >23</text>
<rect x="60" y="306" width="100" height="160" style="fill:steelblue" />
<text x="170" y="316" >24</text>
<text x="220" y="316" >Response.Proto string (size 16, align 8)</text>
<text x="50" y="466" style="text-anchor:end" >39</text>
<rect x="60" y="474" width="100" height="80" style="fill:steelblue" />
<text x="170" y="484" >40</text>
<text x="220" y="484" >Response.ProtoMajor int (size 8, align 8)</text>
<text x="50" y="554" style="text-anchor:end" >47</text>
<rect x="60" y="562" width="100" height="80" style="fill:steelblue" />
<text x="170" y="572" >48</text>
<text x="220" y="572" >Response.ProtoMinor int (size 8, align 8)</text>
<text x="50" y="642" style="text-anchor:end" >55</text>
<rect x="60" y="650" width="100" height="80" style="fill:steelblue" />
<text x="170" y="660" >56</text>
<text x="220" y="660" >Response.Header net/http.Header (size 8, align 8)</text>
<text x="50" y="730" style="text-anchor:end" >63</text>
<rect x="60" y="738" width="100" height="160" style="fill:steelblue" />
<text x="170" y="748" >64</text>
<text x="220" y="748" >Response.Body io.ReadCloser (size 16, align 8)</text>
<text x="50" y="898" style="text-anchor:end" >79</text>
<rect x="60" y="906" width="100" height="80" style="fill:steelblue" />
<text x="170" y="916" >80</text>
<text x="220" y="916" >Response.ContentLength int64 (size 8, align 8)</text>
<text x="50" y="986" style="text-anchor:end" >87</text>
<rect x="60" y="994" width="100" height="240" style="fill:steelblue" />
<text x="170" y="1004" >88</text>
<text x="220" y="1004" >Response.TransferEncoding []string (size 24, align 8)</text>
<text x="50" y="1234" style="text-anchor:end" >111</text>
<rect x="60" y="1242" width="100" height="10" style="fill:steelblue" />
<text x="170" y="1252" >112</text>
<text x="220" y="1252" >Response.Close bool (size 1, align 1)</text>
<rect x="60" y="1260" width="100" height="10" style="fill:steelblue" />
<text x="170" y="1270" >113</text>
<text x="220" y="1270" >Response.Uncompressed bool (size 1, align 1)</text>
<rect x="60" y="1278" width="100" height="60" style="fill:maroon" />
<text x="170" y="1288" >114</text>
<text x="220" y="1288" >padding (size 6, align 0)</text>
<text x="50" y="1338" style="text-anchor:end" >119</text>
<rect x="60" y="1346" width="100" height="80" style="fill:steelblue" />
<text x="170" y="1356" >120</text>
<text x="220" y="1356" >Response.Trailer net/http.Header (size 8, align 8)</text>
<text x="50" y="1426" style="text-anchor:end" >127</text>
<rect x="60" y="1434" width="100" height="80" style="fill:steelblue" />
<text x="170" y="1444" >128</text>
<text x="220" y="1444" >Response.Request *net/http.Request (size 8, align 8)</text>
<text x="50" y="1514" style="text-anchor:end" >135</text>
<rect x="60" y="1522" width="100" height="80" style="fill:steelblue" />
<text x="170" y="1532" >136</text>
<text x="220" y="1532" >Response.TLS *crypto/tls.ConnectionState (size 8, align 8)</text>
<text x="50" y="1602" style="text-anchor:end" >143</text>
</g>
</svg>
