<?xml version="1.0" encoding="UTF-8"?>
<svg xmlns="http://www.w3.org/2000/svg" width="1200" height="320">
<style>text{font-family:system-ui,sans-serif}</style>
<rect width="1200" height="320" fill="#fafafa" rx="4"/>
<text x="600" y="30" text-anchor="middle" font-size="15" font-weight="bold" fill="#333">Warehouse Placement — Customers</text>
<line x1="60" y1="50" x2="60" y2="270" stroke="#eee"/>
<line x1="60" y1="50" x2="1140" y2="50" stroke="#eee"/>
<line x1="168" y1="50" x2="168" y2="270" stroke="#eee"/>
<line x1="60" y1="72" x2="1140" y2="72" stroke="#eee"/>
<line x1="276" y1="50" x2="276" y2="270" stroke="#eee"/>
<line x1="60" y1="94" x2="1140" y2="94" stroke="#eee"/>
<line x1="384" y1="50" x2="384" y2="270" stroke="#eee"/>
<line x1="60" y1="116" x2="1140" y2="116" stroke="#eee"/>
<line x1="492" y1="50" x2="492" y2="270" stroke="#eee"/>
<line x1="60" y1="138" x2="1140" y2="138" stroke="#eee"/>
<line x1="600" y1="50" x2="600" y2="270" stroke="#eee"/>
<line x1="60" y1="160" x2="1140" y2="160" stroke="#eee"/>
<line x1="708" y1="50" x2="708" y2="270" stroke="#eee"/>
<line x1="60" y1="182" x2="1140" y2="182" stroke="#eee"/>
<line x1="816" y1="50" x2="816" y2="270" stroke="#eee"/>
<line x1="60" y1="204" x2="1140" y2="204" stroke="#eee"/>
<line x1="924" y1="50" x2="924" y2="270" stroke="#eee"/>
<line x1="60" y1="226" x2="1140" y2="226" stroke="#eee"/>
<line x1="1032" y1="50" x2="1032" y2="270" stroke="#eee"/>
<line x1="60" y1="248" x2="1140" y2="248" stroke="#eee"/>
<line x1="1140" y1="50" x2="1140" y2="270" stroke="#eee"/>
<line x1="60" y1="270" x2="1140" y2="270" stroke="#eee"/>
<circle cx="737.9" cy="111.5" r="6.3" fill="#4a90d9" stroke="#2c5aa0" stroke-width="1.5"/>
<text x="737.9" y="100.2" text-anchor="middle" fill="#333" font-weight="bold" font-size="11">A</text>
<text x="737.9" y="129.8" text-anchor="middle" fill="#999" font-size="9">w=1.4</text>
<circle cx="311.2" cy="110.5" r="11.6" fill="#4a90d9" stroke="#2c5aa0" stroke-width="1.5"/>
<text x="311.2" y="93.9" text-anchor="middle" fill="#333" font-weight="bold" font-size="11">B</text>
<text x="311.2" y="134.1" text-anchor="middle" fill="#999" font-size="9">w=4.8</text>
<circle cx="1045.3" cy="118.9" r="10.3" fill="#4a90d9" stroke="#2c5aa0" stroke-width="1.5"/>
<text x="1045.3" y="103.6" text-anchor="middle" fill="#333" font-weight="bold" font-size="11">C</text>
<text x="1045.3" y="141.1" text-anchor="middle" fill="#999" font-size="9">w=3.9</text>
<circle cx="401.9" cy="253.1" r="19.0" fill="#4a90d9" stroke="#2c5aa0" stroke-width="1.5"/>
<text x="401.9" y="229.1" text-anchor="middle" fill="#333" font-weight="bold" font-size="11">D</text>
<text x="401.9" y="284.1" text-anchor="middle" fill="#999" font-size="9">w=9.4</text>
<circle cx="172.1" cy="62.4" r="12.6" fill="#4a90d9" stroke="#2c5aa0" stroke-width="1.5"/>
<text x="172.1" y="44.8" text-anchor="middle" fill="#333" font-weight="bold" font-size="11">E</text>
<text x="172.1" y="87.1" text-anchor="middle" fill="#999" font-size="9">w=5.4</text>
<circle cx="771.7" cy="70.4" r="10.2" fill="#4a90d9" stroke="#2c5aa0" stroke-width="1.5"/>
<text x="771.7" y="55.2" text-anchor="middle" fill="#333" font-weight="bold" font-size="11">F</text>
<text x="771.7" y="92.6" text-anchor="middle" fill="#999" font-size="9">w=3.9</text>
<circle cx="542.1" cy="180.2" r="9.5" fill="#4a90d9" stroke="#2c5aa0" stroke-width="1.5"/>
<text x="542.1" y="165.7" text-anchor="middle" fill="#333" font-weight="bold" font-size="11">G</text>
<text x="542.1" y="201.7" text-anchor="middle" fill="#999" font-size="9">w=3.4</text>
<circle cx="819.4" cy="185.5" r="6.8" fill="#4a90d9" stroke="#2c5aa0" stroke-width="1.5"/>
<text x="819.4" y="173.7" text-anchor="middle" fill="#333" font-weight="bold" font-size="11">H</text>
<text x="819.4" y="204.3" text-anchor="middle" fill="#999" font-size="9">w=1.8</text>
<circle cx="233.4" cy="200.4" r="8.1" fill="#4a90d9" stroke="#2c5aa0" stroke-width="1.5"/>
<text x="233.4" y="187.4" text-anchor="middle" fill="#333" font-weight="bold" font-size="11">I</text>
<text x="233.4" y="220.5" text-anchor="middle" fill="#999" font-size="9">w=2.5</text>
<circle cx="281.1" cy="142.8" r="11.4" fill="#4a90d9" stroke="#2c5aa0" stroke-width="1.5"/>
<text x="281.1" y="126.4" text-anchor="middle" fill="#333" font-weight="bold" font-size="11">J</text>
<text x="281.1" y="166.2" text-anchor="middle" fill="#999" font-size="9">w=4.6</text>
<circle cx="1050.1" cy="145.6" r="15.5" fill="#4a90d9" stroke="#2c5aa0" stroke-width="1.5"/>
<text x="1050.1" y="125.1" text-anchor="middle" fill="#333" font-weight="bold" font-size="11">K</text>
<text x="1050.1" y="173.1" text-anchor="middle" fill="#999" font-size="9">w=7.2</text>
<circle cx="163.1" cy="238.8" r="9.6" fill="#4a90d9" stroke="#2c5aa0" stroke-width="1.5"/>
<text x="163.1" y="224.2" text-anchor="middle" fill="#333" font-weight="bold" font-size="11">L</text>
<text x="163.1" y="260.3" text-anchor="middle" fill="#999" font-size="9">w=3.5</text>
<circle cx="425.1" cy="142.2" r="8.3" fill="#4a90d9" stroke="#2c5aa0" stroke-width="1.5"/>
<text x="425.1" y="128.9" text-anchor="middle" fill="#333" font-weight="bold" font-size="11">M</text>
<text x="425.1" y="162.5" text-anchor="middle" fill="#999" font-size="9">w=2.7</text>
<circle cx="418.5" cy="220.6" r="9.1" fill="#4a90d9" stroke="#2c5aa0" stroke-width="1.5"/>
<text x="418.5" y="206.5" text-anchor="middle" fill="#333" font-weight="bold" font-size="11">N</text>
<text x="418.5" y="241.7" text-anchor="middle" fill="#999" font-size="9">w=3.2</text>
<circle cx="554.5" cy="110.5" r="6.7" fill="#4a90d9" stroke="#2c5aa0" stroke-width="1.5"/>
<text x="554.5" y="98.7" text-anchor="middle" fill="#333" font-weight="bold" font-size="11">O</text>
<text x="554.5" y="129.2" text-anchor="middle" fill="#999" font-size="9">w=1.7</text>
<circle cx="735.0" cy="243.6" r="15.6" fill="#4a90d9" stroke="#2c5aa0" stroke-width="1.5"/>
<text x="735.0" y="223.0" text-anchor="middle" fill="#333" font-weight="bold" font-size="11">P</text>
<text x="735.0" y="271.2" text-anchor="middle" fill="#999" font-size="9">w=7.2</text>
<circle cx="951.5" cy="220.3" r="15.9" fill="#4a90d9" stroke="#2c5aa0" stroke-width="1.5"/>
<text x="951.5" y="199.4" text-anchor="middle" fill="#333" font-weight="bold" font-size="11">Q</text>
<text x="951.5" y="248.2" text-anchor="middle" fill="#999" font-size="9">w=7.5</text>
<circle cx="187.6" cy="161.1" r="14.8" fill="#4a90d9" stroke="#2c5aa0" stroke-width="1.5"/>
<text x="187.6" y="141.3" text-anchor="middle" fill="#333" font-weight="bold" font-size="11">R</text>
<text x="187.6" y="187.9" text-anchor="middle" fill="#999" font-size="9">w=6.8</text>
<circle cx="536.2" cy="249.2" r="17.6" fill="#4a90d9" stroke="#2c5aa0" stroke-width="1.5"/>
<text x="536.2" y="226.6" text-anchor="middle" fill="#333" font-weight="bold" font-size="11">S</text>
<text x="536.2" y="278.8" text-anchor="middle" fill="#999" font-size="9">w=8.5</text>
<circle cx="961.7" cy="173.2" r="6.4" fill="#4a90d9" stroke="#2c5aa0" stroke-width="1.5"/>
<text x="961.7" y="161.7" text-anchor="middle" fill="#333" font-weight="bold" font-size="11">T</text>
<text x="961.7" y="191.6" text-anchor="middle" fill="#999" font-size="9">w=1.5</text>
<circle cx="1057.2" cy="256.8" r="10.9" fill="#4a90d9" stroke="#2c5aa0" stroke-width="1.5"/>
<text x="1057.2" y="241.0" text-anchor="middle" fill="#333" font-weight="bold" font-size="11">U</text>
<text x="1057.2" y="279.7" text-anchor="middle" fill="#999" font-size="9">w=4.3</text>
<circle cx="1083.1" cy="87.7" r="11.7" fill="#4a90d9" stroke="#2c5aa0" stroke-width="1.5"/>
<text x="1083.1" y="71.0" text-anchor="middle" fill="#333" font-weight="bold" font-size="11">V</text>
<text x="1083.1" y="111.4" text-anchor="middle" fill="#999" font-size="9">w=4.8</text>
<circle cx="772.3" cy="217.8" r="6.1" fill="#4a90d9" stroke="#2c5aa0" stroke-width="1.5"/>
<text x="772.3" y="206.7" text-anchor="middle" fill="#333" font-weight="bold" font-size="11">W</text>
<text x="772.3" y="235.9" text-anchor="middle" fill="#999" font-size="9">w=1.3</text>
<circle cx="697.2" cy="152.6" r="7.6" fill="#4a90d9" stroke="#2c5aa0" stroke-width="1.5"/>
<text x="697.2" y="140.1" text-anchor="middle" fill="#333" font-weight="bold" font-size="11">X</text>
<text x="697.2" y="172.2" text-anchor="middle" fill="#999" font-size="9">w=2.2</text>
</svg>
