<?xml version="1.0" encoding="utf-8"?>
<!-- Generator: Adobe Illustrator 25.4.1, SVG Export Plug-In . SVG Version: 6.00 Build 0)  -->
<svg version="1.1" id="Layer_1" xmlns="http://www.w3.org/2000/svg" xmlns:xlink="http://www.w3.org/1999/xlink" x="0px" y="0px"
	 viewBox="0 0 556.6 192.5" style="enable-background:new 0 0 556.6 192.5;" xml:space="preserve">
<style type="text/css">
	.st0{fill:#244583;}
</style>
<g>
	<path class="st0" d="M206,84.6c-3.6,0-6.3,1.3-8.3,4s-2.9,6.4-2.9,11.2c0,10,3.7,15,11.2,15c3.1,0,6.9-0.8,11.4-2.4v8
		c-3.7,1.5-7.8,2.3-12.3,2.3c-6.5,0-11.5-2-14.9-5.9c-3.4-4-5.2-9.6-5.2-17c0-4.7,0.8-8.7,2.5-12.2s4.1-6.2,7.3-8
		c3.2-1.9,6.9-2.8,11.2-2.8s8.7,1.1,13.1,3.2l-3.1,7.7c-1.7-0.8-3.4-1.5-5-2.1C209.3,84.9,207.7,84.6,206,84.6z"/>
	<path class="st0" d="M233.7,105c0,3.4,0.6,5.9,1.7,7.7c1.1,1.7,2.9,2.6,5.4,2.6s4.3-0.9,5.4-2.6c1.1-1.7,1.7-4.3,1.7-7.7
		c0-3.4-0.6-5.9-1.7-7.6c-1.1-1.7-2.9-2.5-5.4-2.5s-4.3,0.8-5.4,2.5C234.2,99,233.7,101.6,233.7,105z M257.4,105
		c0,5.6-1.5,9.9-4.4,13.1s-7,4.7-12.3,4.7c-3.3,0-6.2-0.7-8.7-2.1s-4.4-3.5-5.8-6.2c-1.3-2.7-2-5.8-2-9.4c0-5.6,1.5-9.9,4.4-13
		s7-4.7,12.3-4.7c3.3,0,6.2,0.7,8.7,2.1s4.4,3.5,5.8,6.2C256.7,98.2,257.4,101.4,257.4,105z"/>
	<path class="st0" d="M275.9,122.7c-4,0-7.2-1.6-9.5-4.7s-3.4-7.4-3.4-13s1.2-10,3.5-13.1s5.6-4.7,9.7-4.7c4.3,0,7.6,1.7,9.9,5h0.3
		c-0.5-2.6-0.7-4.8-0.7-6.8v-11h9.4V122h-7.2l-1.8-4.4h-0.4C283.5,121.1,280.2,122.7,275.9,122.7z M279.2,115.3
		c2.4,0,4.1-0.7,5.2-2.1s1.7-3.7,1.8-7.1v-1c0-3.7-0.6-6.3-1.7-7.9s-3-2.4-5.5-2.4c-2.1,0-3.7,0.9-4.9,2.7c-1.1,1.8-1.7,4.3-1.7,7.7
		s0.6,5.9,1.7,7.6C275.3,114.5,277,115.3,279.2,115.3z"/>
	<path class="st0" d="M318.9,93.9c-2,0-3.5,0.6-4.7,1.9c-1.1,1.2-1.8,3-1.9,5.3h13.1c0-2.3-0.6-4.1-1.8-5.3
		C322.5,94.5,320.9,93.9,318.9,93.9z M320.2,122.7c-5.5,0-9.8-1.5-12.9-4.6c-3.1-3-4.7-7.3-4.7-12.9c0-5.7,1.4-10.2,4.3-13.3
		c2.9-3.1,6.8-4.7,11.9-4.7c4.8,0,8.6,1.4,11.3,4.1c2.7,2.8,4,6.6,4,11.4v4.5H312c0.1,2.7,0.9,4.7,2.4,6.2s3.5,2.2,6.2,2.2
		c2.1,0,4-0.2,5.8-0.6s3.8-1.1,5.8-2.1v7.2c-1.6,0.8-3.4,1.4-5.2,1.8C325.2,122.5,322.9,122.7,320.2,122.7z"/>
	<path class="st0" d="M373.3,122.1H364v-20c0-2.5-0.4-4.3-1.3-5.5s-2.3-1.9-4.2-1.9c-2.6,0-4.5,0.9-5.7,2.6s-1.7,4.6-1.7,8.7v16.1
		h-9.3V87.9h7.1l1.3,4.4h0.5c1-1.7,2.5-2.9,4.3-3.7c1.8-0.9,3.9-1.3,6.2-1.3c4,0,7,1.1,9.1,3.2s3.1,5.2,3.1,9.3v22.3H373.3z"/>
	<path class="st0" d="M390.4,105c0,3.4,0.6,5.9,1.7,7.7c1.1,1.7,2.9,2.6,5.4,2.6s4.3-0.9,5.4-2.6s1.7-4.3,1.7-7.7
		c0-3.4-0.5-5.9-1.7-7.6c-1.1-1.7-2.9-2.5-5.4-2.5s-4.3,0.8-5.4,2.5C390.9,99,390.4,101.6,390.4,105z M414.1,105
		c0,5.6-1.5,9.9-4.4,13.1c-2.9,3.1-7,4.7-12.3,4.7c-3.3,0-6.2-0.7-8.7-2.1s-4.4-3.5-5.8-6.2c-1.3-2.7-2-5.8-2-9.4
		c0-5.6,1.5-9.9,4.4-13s7-4.7,12.3-4.7c3.3,0,6.2,0.7,8.7,2.1s4.4,3.5,5.8,6.2C413.4,98.2,414.1,101.4,414.1,105z"/>
	<path class="st0" d="M436.2,115.3c1.6,0,3.6-0.4,5.9-1.1v6.9c-2.3,1-5.2,1.6-8.6,1.6c-3.7,0-6.5-0.9-8.2-2.8s-2.5-4.7-2.5-8.5V94.9
		h-4.5V91l5.1-3.1l2.7-7.2h6V88h9.6v7h-9.6v16.5c0,1.3,0.4,2.3,1.1,2.9C434,115,435,115.3,436.2,115.3z"/>
	<path class="st0" d="M470.7,122.1l-1.8-4.7h-0.2c-1.6,2-3.2,3.4-4.9,4.1c-1.7,0.8-3.8,1.1-6.5,1.1c-3.3,0-5.9-0.9-7.8-2.8
		s-2.8-4.6-2.8-8c0-3.6,1.3-6.3,3.8-8c2.6-1.7,6.4-2.7,11.5-2.9l5.9-0.2v-1.5c0-3.5-1.8-5.2-5.3-5.2c-2.7,0-5.9,0.8-9.6,2.5
		l-3.1-6.3c3.9-2.1,8.3-3.1,13.1-3.1c4.6,0,8.1,1,10.6,3c2.4,2,3.7,5,3.7,9.1V122L470.7,122.1L470.7,122.1z M468,106.3l-3.6,0.1
		c-2.7,0.1-4.7,0.6-6.1,1.5c-1.3,0.9-2,2.3-2,4.1c0,2.6,1.5,3.9,4.5,3.9c2.2,0,3.9-0.6,5.2-1.9c1.3-1.2,2-2.9,2-5V106.3z"/>
	<path class="st0" d="M506,87.3c1.3,0,2.3,0.1,3.2,0.3l-0.7,8.8c-0.8-0.2-1.7-0.3-2.8-0.3c-3,0-5.3,0.8-7,2.3s-2.5,3.7-2.5,6.4v17.4
		h-9.3V87.9h7.1l1.4,5.8h0.5c1.1-1.9,2.5-3.5,4.3-4.6C501.9,87.9,503.9,87.3,506,87.3z"/>
	<path class="st0" d="M510.5,87.9h10.2l6.5,19.3c0.6,1.7,0.9,3.7,1.1,5.9h0.2c0.2-2.1,0.7-4.1,1.3-5.9l6.3-19.3h10l-14.5,38.6
		c-1.3,3.6-3.2,6.2-5.7,8c-2.4,1.8-5.3,2.7-8.6,2.7c-1.6,0-3.2-0.2-4.7-0.5v-7.4c1.1,0.3,2.3,0.4,3.7,0.4c1.7,0,3.1-0.5,4.3-1.5
		s2.2-2.5,2.9-4.6l0.5-1.7L510.5,87.9z"/>
	<path class="st0" d="M92.2,28.9c-39.5,0-71.6,32.1-71.6,71.6s32.1,71.6,71.6,71.6c39.5-0.1,71.5-32.1,71.6-71.6
		C163.8,61,131.7,28.9,92.2,28.9z M92.2,32.1c37.8,0.1,68.4,30.7,68.4,68.4c0,37.8-30.6,68.4-68.4,68.4s-68.4-30.6-68.4-68.4
		S54.4,32.1,92.2,32.1z"/>
	<path class="st0" d="M92.2,164.2c-3.7,0-7.4-0.3-11.1-0.9c-0.6-0.1-1.1-0.4-1.3-1c-0.2-0.6-0.1-1.1,0.3-1.6
		c0.4-0.4,0.9-0.6,1.5-0.5c6.9,1.2,14.1,1.2,21.1,0c0.9-0.1,1.7,0.4,1.8,1.2c0.1,0.9-0.4,1.7-1.2,1.8
		C99.6,163.9,95.9,164.2,92.2,164.2z M61.1,155.9c-0.2,0-0.6-0.1-0.7-0.2c-6.4-3.8-12.1-8.6-16.9-14.3c-0.6-0.7-0.5-1.6,0.2-2.2
		c0.7-0.6,1.6-0.5,2.2,0.2c4.6,5.4,10,10,16.1,13.5c0.6,0.4,0.9,1.1,0.8,1.7C62.5,155.4,61.9,155.9,61.1,155.9z M123.3,155.9
		c-0.7,0-1.3-0.5-1.5-1.1s0.1-1.4,0.8-1.8c6.1-3.6,11.6-8.1,16.1-13.5c0.4-0.4,0.9-0.7,1.5-0.6c0.6,0.1,1,0.5,1.2,1
		c0.2,0.6,0.1,1.1-0.3,1.6c-4.8,5.7-10.5,10.5-16.9,14.2C123.8,155.8,123.6,155.9,123.3,155.9z M33.8,123.4c-0.7,0-1.2-0.4-1.5-1.1
		c-2.6-7-3.9-14.4-3.8-21.8c0-0.4,0.2-0.8,0.4-1.1c0.3-0.3,0.7-0.4,1.1-0.4c0.9,0,1.6,0.7,1.6,1.6c0,7.1,1.2,14.1,3.7,20.7
		c0.3,0.8-0.1,1.7-0.9,2C34.1,123.4,34,123.4,33.8,123.4z M150.6,123.4c-0.2,0-0.4,0-0.6-0.1c-0.4-0.1-0.7-0.4-0.9-0.8
		s-0.2-0.8-0.1-1.2c2.4-6.6,3.6-13.7,3.6-20.8v-0.1c0-0.9,0.7-1.6,1.6-1.6c0.9,0,1.6,0.7,1.6,1.6v0.1c0,7.4-1.3,14.8-3.8,21.8
		C151.9,122.9,151.3,123.3,150.6,123.4z M33.8,80.9c-0.5,0-1-0.3-1.3-0.7c-0.3-0.4-0.4-0.9-0.2-1.4c2.6-7,6.3-13.5,11.1-19.2
		c0.6-0.7,1.6-0.8,2.2-0.2c0.6,0.6,0.8,1.6,0.2,2.2c-4.6,5.4-8.1,11.6-10.5,18.3C35,80.4,34.5,80.9,33.8,80.9z M150.6,80.7
		c-0.7,0-1.2-0.4-1.5-1c-2.4-6.6-6-12.8-10.6-18.2c-0.4-0.4-0.4-1-0.3-1.6c0.2-0.5,0.6-0.9,1.2-1c0.6-0.1,1.1,0.1,1.5,0.6
		c4.8,5.7,8.6,12.1,11.1,19.1c0.3,0.8-0.1,1.7-0.9,2C151,80.6,150.8,80.7,150.6,80.7z M61.1,48.3c-0.7,0-1.3-0.5-1.5-1.2
		s0.1-1.4,0.7-1.8c6.4-3.8,13.4-6.3,20.8-7.6c0.6-0.1,1.1,0.1,1.5,0.6c0.4,0.4,0.4,1,0.3,1.6c-0.2,0.6-0.6,0.9-1.2,1
		c-6.9,1.3-13.6,3.7-19.8,7.3C61.6,48.2,61.3,48.3,61.1,48.3z M123.2,48.2c-0.3,0-0.6-0.1-0.7-0.2c-6.1-3.5-12.8-5.9-19.8-7.2
		c-0.8-0.2-1.3-1-1.2-1.8c0.1-0.8,0.9-1.4,1.8-1.3c7.3,1.3,14.4,3.8,20.8,7.5c0.6,0.4,0.9,1.1,0.8,1.8
		C124.5,47.7,123.9,48.1,123.2,48.2z"/>
	<path class="st0" d="M92.2,155.9c-30.6,0-55.4-24.8-55.4-55.4s24.8-55.4,55.4-55.4s55.4,24.8,55.4,55.4S122.8,155.9,92.2,155.9z
		 M92.2,48.2c-28.9,0-52.3,23.4-52.3,52.3s23.4,52.3,52.3,52.3s52.3-23.4,52.3-52.3S121.1,48.3,92.2,48.2z"/>
	<path class="st0" d="M89.3,116.1c-0.1,0-0.3,0-0.4-0.1c-5.7-1.5-10.2-5.8-12-11.4C75.1,99.1,76.2,93,80,88.4v-0.1
		c0.4-0.4,0.7-0.9,1.1-1.2L95,73.2c4.4-4.4,10.8-6.1,16.7-4.5c6,1.6,10.6,6.2,12.3,12.3c1.6,6-0.1,12.4-4.5,16.7l-13.9,13.9
		c-0.4,0.4-0.9,0.8-1.3,1.2c-0.6,0.5-1.5,0.4-2.1-0.1c-0.6-0.6-0.6-1.4-0.1-2.1c2.9-3.6,3.9-8.3,2.7-12.6c-0.1-0.6,0-1.1,0.4-1.5
		l6.6-6.6c2.4-2.5,2.3-6.4-0.1-8.8s-6.4-2.5-8.8-0.1L88.8,94.9c-0.3,0.3-0.6,0.6-0.8,1c-1.6,2.5-1.3,5.8,0.8,7.9
		c2.1,2.1,5.4,2.4,7.9,0.8c0.6-0.4,1.4-0.3,1.9,0.2s0.6,1.3,0.2,1.9s-0.8,1.1-1.2,1.5l-7.4,7.4C90.1,116,89.6,116.1,89.3,116.1z
		 M82.3,90.4c-2.9,3.6-3.9,8.4-2.6,12.9c1.3,4.4,4.7,8,9.1,9.5l4-4c-3.4-0.2-6.4-2.1-7.9-5.1s-1.3-6.6,0.6-9.4
		c0.4-0.6,0.8-1.1,1.2-1.5l13.9-13.9c3.7-3.7,9.7-3.7,13.4,0c3.7,3.7,3.7,9.7,0,13.4l-5.9,5.9c0.3,1.2,0.4,2.4,0.4,3.6
		c0,1-0.1,2-0.3,3l9.2-9.1c5.6-5.6,5.6-14.6,0-20.1c-5.6-5.6-14.6-5.6-20.1,0l-14,14C83,89.7,82.6,90,82.3,90.4z"/>
	<path class="st0" d="M93.3,108.8c-3.5,0-6.7-1.9-8.3-4.9c-1.6-3.1-1.5-6.8,0.4-9.7c0.1-0.2,0.3-0.3,0.4-0.4
		c2.9-1.9,6.6-2.1,9.7-0.4c3.1,1.6,4.9,4.8,4.9,8.3c0,1.8-0.6,3.6-1.6,5.2c-0.1,0.2-0.3,0.3-0.4,0.4C97,108.3,95.2,108.8,93.3,108.8
		z M87.9,96.2c-1.4,2.5-1.1,5.6,1,7.6c2,2,5.2,2.4,7.6,1c0.6-1,0.9-2.1,0.9-3.2c0-2.3-1.2-4.4-3.2-5.5C92.2,95,89.8,95.1,87.9,96.2z
		"/>
	<path class="st0" d="M106.3,99.1c-0.1,0-0.2,0-0.4-0.1c-0.6-0.1-0.9-0.6-1.1-1.1c-1.3-4.9-5.1-8.7-10-10c-0.6-0.1-0.9-0.6-1.1-1.1
		c-0.1-0.6,0-1.1,0.4-1.5l6.5-6.6c3.7-3.7,9.7-3.7,13.4,0c3.7,3.7,3.7,9.7,0,13.4l-6.6,6.5C107.1,98.9,106.7,99.1,106.3,99.1z
		 M98,85.8c4,1.8,7.2,4.9,8.9,8.9l4.8-4.8c1.6-1.6,2.3-3.9,1.8-6.1c-0.6-2.2-2.3-3.9-4.5-4.5s-4.6,0.1-6.1,1.8L98,85.8z"/>
	<path class="st0" d="M93.3,108.8c-3.5,0-6.7-1.9-8.3-4.9c-1.6-3.1-1.5-6.8,0.4-9.7c0.1-0.2,0.3-0.3,0.4-0.4
		c2.9-1.9,6.6-2.1,9.7-0.4c3.1,1.6,4.9,4.8,4.9,8.3c0,1.8-0.6,3.6-1.6,5.2c-0.1,0.2-0.3,0.3-0.4,0.4C97,108.3,95.2,108.8,93.3,108.8
		z M87.9,96.2c-1.4,2.5-1.1,5.6,1,7.6c2,2,5.2,2.4,7.6,1c0.6-1,0.9-2.1,0.9-3.2c0-2.3-1.2-4.4-3.2-5.5C92.2,95,89.8,95.1,87.9,96.2z
		"/>
	<path class="st0" d="M106.3,99.1c-0.1,0-0.2,0-0.4-0.1c-0.6-0.1-0.9-0.6-1.1-1.1c-1.3-4.9-5.1-8.7-10-10c-0.6-0.1-0.9-0.6-1.1-1.1
		c-0.1-0.6,0-1.1,0.4-1.5l6.5-6.6c3.7-3.7,9.7-3.7,13.4,0c3.7,3.7,3.7,9.7,0,13.4l-6.6,6.5C107.1,98.9,106.7,99.1,106.3,99.1z
		 M98,85.8c4,1.8,7.2,4.9,8.9,8.9l4.8-4.8c1.6-1.6,2.3-3.9,1.8-6.1c-0.6-2.2-2.3-3.9-4.5-4.5s-4.6,0.1-6.1,1.8L98,85.8z"/>
	<path class="st0" d="M77.1,132.9c-7,0-13.3-4.2-16-10.7c-2.7-6.4-1.2-13.9,3.8-18.9l13.9-13.9c0.4-0.4,0.9-0.8,1.3-1.2
		c0.6-0.5,1.5-0.4,2.1,0.1c0.6,0.6,0.6,1.4,0.1,2.1c-2.9,3.6-3.9,8.3-2.7,12.6c0.1,0.6,0,1.1-0.4,1.5l-6.6,6.6
		c-2.4,2.5-2.3,6.4,0.1,8.8s6.4,2.5,8.8,0.1l13.9-13.9c0.3-0.3,0.6-0.6,0.8-1c0.7-1.1,1-2.3,1.1-3.5c0-2.3-1.3-4.4-3.3-5.6
		c-2.1-1.1-4.5-1-6.4,0.3c-0.6,0.4-1.4,0.3-1.9-0.2s-0.6-1.3-0.2-1.9s0.8-1.1,1.2-1.5l7.3-7.4c0.4-0.4,0.9-0.6,1.5-0.4
		c5.7,1.5,10.2,5.8,12,11.4s0.7,11.7-3.1,16.3v0.1c-0.4,0.4-0.7,0.9-1.1,1.3l-14,13.9C86.1,131.1,81.8,132.9,77.1,132.9z M76.3,96.4
		l-9.2,9.1c-5.4,5.6-5.4,14.4,0.1,19.9c5.5,5.5,14.4,5.6,19.9,0.1l13.9-13.9c0.3-0.3,0.6-0.7,0.9-1.1l0.1-0.1
		c2.9-3.6,3.9-8.4,2.6-12.9c-1.3-4.4-4.7-8-9.1-9.5l-4,4.1c3.4,0.2,6.4,2.1,7.9,5.1s1.3,6.6-0.6,9.4c-0.4,0.6-0.7,1.1-1.2,1.5
		L83.7,122c-3.7,3.7-9.7,3.7-13.4,0c-3.7-3.7-3.7-9.7,0-13.4l5.9-5.9C76,100.8,75.9,98.6,76.3,96.4z"/>
	<path class="st0" d="M93.3,108.8c-3.5,0-6.7-1.9-8.3-4.9c-1.6-3.1-1.5-6.8,0.4-9.7c0.1-0.2,0.3-0.3,0.4-0.4
		c3.8-2.4,8.7-1.9,11.9,1.2c3.2,3.2,3.7,8.1,1.2,11.9c-0.1,0.2-0.3,0.3-0.4,0.4C97,108.3,95.2,108.8,93.3,108.8z M87.9,96.2
		c-1.4,2.5-1.1,5.6,1,7.6c2,2,5.2,2.4,7.6,1c0.6-1,0.9-2.1,0.9-3.2c0-2.3-1.2-4.3-3.2-5.4C92.3,95.1,89.8,95.1,87.9,96.2z"/>
	<path class="st0" d="M77.1,125c-3.8,0-7.3-2.3-8.7-5.8s-0.6-7.6,2.1-10.3l6.5-6.5c0.4-0.4,1-0.6,1.5-0.4c0.6,0.1,0.9,0.6,1.1,1.1
		c1.3,4.9,5.1,8.7,10,10c0.6,0.1,0.9,0.6,1.1,1.1c0.1,0.6,0,1.1-0.4,1.5l-6.5,6.5C82.1,124,79.6,125,77.1,125z M77.5,106.3l-4.8,4.8
		c-2.4,2.5-2.3,6.4,0.1,8.8s6.4,2.5,8.8,0.1l4.8-4.8C82.4,113.5,79.2,110.3,77.5,106.3z"/>
	<path class="st0" d="M93.3,108.8c-3.5,0-6.7-1.9-8.3-4.9c-1.6-3.1-1.5-6.8,0.4-9.7c0.1-0.2,0.3-0.3,0.4-0.4
		c3.8-2.4,8.7-1.9,11.9,1.2c3.2,3.2,3.7,8.1,1.2,11.9c-0.1,0.2-0.3,0.3-0.4,0.4C97,108.3,95.2,108.8,93.3,108.8z M87.9,96.2
		c-1.4,2.5-1.1,5.6,1,7.6c2,2,5.2,2.4,7.6,1c0.6-1,0.9-2.1,0.9-3.2c0-2.3-1.2-4.3-3.2-5.4C92.3,95.1,89.8,95.1,87.9,96.2z"/>
	<path class="st0" d="M77.1,125c-3.8,0-7.3-2.3-8.7-5.8s-0.6-7.6,2.1-10.3l6.5-6.5c0.4-0.4,1-0.6,1.5-0.4c0.6,0.1,0.9,0.6,1.1,1.1
		c1.3,4.9,5.1,8.7,10,10c0.6,0.1,0.9,0.6,1.1,1.1c0.1,0.6,0,1.1-0.4,1.5l-6.5,6.5C82.1,124,79.6,125,77.1,125z M77.5,106.3l-4.8,4.8
		c-2.4,2.5-2.3,6.4,0.1,8.8s6.4,2.5,8.8,0.1l4.8-4.8C82.4,113.5,79.2,110.3,77.5,106.3z"/>
</g>
</svg>
